ISO-10303-21;
HEADER;
/* Generated by software containing ST-Developer
 * from STEP Tools, Inc. (www.steptools.com) 
 */
/* OPTION: using custom renumber hook */

FILE_DESCRIPTION(
/* description */ ('STEP AP242 Edition 2',
'CAx-IF Rec.Pracs.---Representation and Presentation of Product Manufa
cturing Information (PMI)---4.0---2014-10-13',
'CAx-IF Rec.Pracs.---3D Tessellated Geometry---0.4---2014-09-14','2;1',
'CAx-IF Rec.Pracs.---User Defined Attributes---1.5---2016-08-15'),
/* implementation_level */ '2;1');

FILE_NAME(
/* name */ 'Part Studio 2 - Case',
/* time_stamp */ '2026-08-27T23:24:09Z',
/* author */ (''),
/* organization */ (''),
/* preprocessor_version */ 'ST-DEVELOPER v20',
/* originating_system */ 'ONSHAPE BY PTC INC, 1.219',
/* authorisation */ '  ');

FILE_SCHEMA (('AP242_MANAGED_MODEL_BASED_3D_ENGINEERING_MIM_LF { 1 0 10303 442 3 1 4 }'));
ENDSEC;

DATA;
#10=SHAPE_REPRESENTATION_RELATIONSHIP('','',#1075,#11);
#11=ADVANCED_BREP_SHAPE_REPRESENTATION('',(#1073),#1757);
#12=ELLIPSE('',#1113,0.0014142125058495,0.000999999252925);
#13=ELLIPSE('',#1115,0.0014142125058495,0.000999999252925);
#14=CYLINDRICAL_SURFACE('',#1084,0.00200020333950168);
#15=CYLINDRICAL_SURFACE('',#1095,0.002700144577789);
#16=CYLINDRICAL_SURFACE('',#1099,0.002699999252925);
#17=CYLINDRICAL_SURFACE('',#1103,0.002699999252925);
#18=CYLINDRICAL_SURFACE('',#1106,0.00270000302702102);
#19=CYLINDRICAL_SURFACE('',#1111,0.000999999252925);
#20=CYLINDRICAL_SURFACE('',#1114,0.000999999252925);
#21=CYLINDRICAL_SURFACE('',#1117,0.00200014457778992);
#22=CYLINDRICAL_SURFACE('',#1128,0.000950203339502003);
#23=CYLINDRICAL_SURFACE('',#1130,0.00105000302702102);
#24=CYLINDRICAL_SURFACE('',#1132,0.001049999252925);
#25=CYLINDRICAL_SURFACE('',#1134,0.001049999252925);
#26=CYLINDRICAL_SURFACE('',#1137,0.001050144577789);
#27=CYLINDRICAL_SURFACE('',#1140,0.000950144577789996);
#28=CIRCLE('',#1078,0.001049999252925);
#29=CIRCLE('',#1079,0.00105000302702102);
#30=CIRCLE('',#1080,0.000950203339502003);
#31=CIRCLE('',#1081,0.00270000302702102);
#32=CIRCLE('',#1082,0.002699999252925);
#33=CIRCLE('',#1085,0.00200020333950168);
#34=CIRCLE('',#1086,0.00200020333950168);
#35=CIRCLE('',#1096,0.002700144577789);
#36=CIRCLE('',#1097,0.002700144577789);
#37=CIRCLE('',#1100,0.002699999252925);
#38=CIRCLE('',#1101,0.002699999252925);
#39=CIRCLE('',#1104,0.002699999252925);
#40=CIRCLE('',#1107,0.00270000302702102);
#41=CIRCLE('',#1112,0.000999999252925);
#42=CIRCLE('',#1116,0.000999999252925);
#43=CIRCLE('',#1118,0.00200014457778992);
#44=CIRCLE('',#1119,0.00200014457778992);
#45=CIRCLE('',#1122,0.000950203339502003);
#46=CIRCLE('',#1123,0.00105000302702102);
#47=CIRCLE('',#1124,0.001049999252925);
#48=CIRCLE('',#1125,0.001049999252925);
#49=CIRCLE('',#1126,0.001050144577789);
#50=CIRCLE('',#1127,0.000950144577789996);
#51=CIRCLE('',#1135,0.001049999252925);
#52=CIRCLE('',#1138,0.001050144577789);
#53=CIRCLE('',#1141,0.000950144577789996);
#54=ORIENTED_EDGE('',*,*,#358,.F.);
#55=ORIENTED_EDGE('',*,*,#359,.T.);
#56=ORIENTED_EDGE('',*,*,#360,.T.);
#57=ORIENTED_EDGE('',*,*,#361,.T.);
#58=ORIENTED_EDGE('',*,*,#362,.T.);
#59=ORIENTED_EDGE('',*,*,#363,.T.);
#60=ORIENTED_EDGE('',*,*,#364,.F.);
#61=ORIENTED_EDGE('',*,*,#365,.F.);
#62=ORIENTED_EDGE('',*,*,#366,.F.);
#63=ORIENTED_EDGE('',*,*,#367,.F.);
#64=ORIENTED_EDGE('',*,*,#368,.F.);
#65=ORIENTED_EDGE('',*,*,#369,.F.);
#66=ORIENTED_EDGE('',*,*,#370,.F.);
#67=ORIENTED_EDGE('',*,*,#371,.F.);
#68=ORIENTED_EDGE('',*,*,#372,.T.);
#69=ORIENTED_EDGE('',*,*,#373,.T.);
#70=ORIENTED_EDGE('',*,*,#374,.T.);
#71=ORIENTED_EDGE('',*,*,#375,.F.);
#72=ORIENTED_EDGE('',*,*,#376,.F.);
#73=ORIENTED_EDGE('',*,*,#371,.T.);
#74=ORIENTED_EDGE('',*,*,#377,.F.);
#75=ORIENTED_EDGE('',*,*,#378,.F.);
#76=ORIENTED_EDGE('',*,*,#379,.T.);
#77=ORIENTED_EDGE('',*,*,#375,.T.);
#78=ORIENTED_EDGE('',*,*,#380,.F.);
#79=ORIENTED_EDGE('',*,*,#381,.F.);
#80=ORIENTED_EDGE('',*,*,#382,.T.);
#81=ORIENTED_EDGE('',*,*,#378,.T.);
#82=ORIENTED_EDGE('',*,*,#383,.F.);
#83=ORIENTED_EDGE('',*,*,#384,.F.);
#84=ORIENTED_EDGE('',*,*,#385,.T.);
#85=ORIENTED_EDGE('',*,*,#381,.T.);
#86=ORIENTED_EDGE('',*,*,#386,.F.);
#87=ORIENTED_EDGE('',*,*,#387,.F.);
#88=ORIENTED_EDGE('',*,*,#388,.T.);
#89=ORIENTED_EDGE('',*,*,#384,.T.);
#90=ORIENTED_EDGE('',*,*,#389,.F.);
#91=ORIENTED_EDGE('',*,*,#390,.F.);
#92=ORIENTED_EDGE('',*,*,#391,.T.);
#93=ORIENTED_EDGE('',*,*,#387,.T.);
#94=ORIENTED_EDGE('',*,*,#392,.T.);
#95=ORIENTED_EDGE('',*,*,#393,.F.);
#96=ORIENTED_EDGE('',*,*,#394,.F.);
#97=ORIENTED_EDGE('',*,*,#395,.T.);
#98=ORIENTED_EDGE('',*,*,#396,.F.);
#99=ORIENTED_EDGE('',*,*,#397,.F.);
#100=ORIENTED_EDGE('',*,*,#398,.T.);
#101=ORIENTED_EDGE('',*,*,#393,.T.);
#102=ORIENTED_EDGE('',*,*,#397,.T.);
#103=ORIENTED_EDGE('',*,*,#399,.F.);
#104=ORIENTED_EDGE('',*,*,#400,.T.);
#105=ORIENTED_EDGE('',*,*,#401,.F.);
#106=ORIENTED_EDGE('',*,*,#402,.F.);
#107=ORIENTED_EDGE('',*,*,#401,.T.);
#108=ORIENTED_EDGE('',*,*,#403,.T.);
#109=ORIENTED_EDGE('',*,*,#404,.F.);
#110=ORIENTED_EDGE('',*,*,#405,.F.);
#111=ORIENTED_EDGE('',*,*,#404,.T.);
#112=ORIENTED_EDGE('',*,*,#406,.T.);
#113=ORIENTED_EDGE('',*,*,#407,.F.);
#114=ORIENTED_EDGE('',*,*,#408,.F.);
#115=ORIENTED_EDGE('',*,*,#407,.T.);
#116=ORIENTED_EDGE('',*,*,#409,.T.);
#117=ORIENTED_EDGE('',*,*,#410,.F.);
#118=ORIENTED_EDGE('',*,*,#411,.F.);
#119=ORIENTED_EDGE('',*,*,#412,.T.);
#120=ORIENTED_EDGE('',*,*,#413,.T.);
#121=ORIENTED_EDGE('',*,*,#369,.T.);
#122=ORIENTED_EDGE('',*,*,#414,.F.);
#123=ORIENTED_EDGE('',*,*,#415,.F.);
#124=ORIENTED_EDGE('',*,*,#410,.T.);
#125=ORIENTED_EDGE('',*,*,#416,.T.);
#126=ORIENTED_EDGE('',*,*,#417,.T.);
#127=ORIENTED_EDGE('',*,*,#418,.T.);
#128=ORIENTED_EDGE('',*,*,#419,.T.);
#129=ORIENTED_EDGE('',*,*,#420,.T.);
#130=ORIENTED_EDGE('',*,*,#421,.T.);
#131=ORIENTED_EDGE('',*,*,#422,.T.);
#132=ORIENTED_EDGE('',*,*,#423,.T.);
#133=ORIENTED_EDGE('',*,*,#424,.T.);
#134=ORIENTED_EDGE('',*,*,#425,.T.);
#135=ORIENTED_EDGE('',*,*,#426,.T.);
#136=ORIENTED_EDGE('',*,*,#427,.T.);
#137=ORIENTED_EDGE('',*,*,#428,.T.);
#138=ORIENTED_EDGE('',*,*,#429,.T.);
#139=ORIENTED_EDGE('',*,*,#414,.T.);
#140=ORIENTED_EDGE('',*,*,#368,.T.);
#141=ORIENTED_EDGE('',*,*,#430,.F.);
#142=ORIENTED_EDGE('',*,*,#431,.F.);
#143=ORIENTED_EDGE('',*,*,#430,.T.);
#144=ORIENTED_EDGE('',*,*,#367,.T.);
#145=ORIENTED_EDGE('',*,*,#432,.F.);
#146=ORIENTED_EDGE('',*,*,#433,.F.);
#147=ORIENTED_EDGE('',*,*,#432,.T.);
#148=ORIENTED_EDGE('',*,*,#366,.T.);
#149=ORIENTED_EDGE('',*,*,#434,.F.);
#150=ORIENTED_EDGE('',*,*,#435,.F.);
#151=ORIENTED_EDGE('',*,*,#434,.T.);
#152=ORIENTED_EDGE('',*,*,#365,.T.);
#153=ORIENTED_EDGE('',*,*,#436,.T.);
#154=ORIENTED_EDGE('',*,*,#437,.F.);
#155=ORIENTED_EDGE('',*,*,#438,.F.);
#156=ORIENTED_EDGE('',*,*,#439,.F.);
#157=ORIENTED_EDGE('',*,*,#440,.F.);
#158=ORIENTED_EDGE('',*,*,#441,.T.);
#159=ORIENTED_EDGE('',*,*,#437,.T.);
#160=ORIENTED_EDGE('',*,*,#442,.T.);
#161=ORIENTED_EDGE('',*,*,#443,.F.);
#162=ORIENTED_EDGE('',*,*,#444,.F.);
#163=ORIENTED_EDGE('',*,*,#440,.T.);
#164=ORIENTED_EDGE('',*,*,#445,.T.);
#165=ORIENTED_EDGE('',*,*,#446,.T.);
#166=ORIENTED_EDGE('',*,*,#443,.T.);
#167=ORIENTED_EDGE('',*,*,#395,.F.);
#168=ORIENTED_EDGE('',*,*,#447,.T.);
#169=ORIENTED_EDGE('',*,*,#448,.T.);
#170=ORIENTED_EDGE('',*,*,#449,.T.);
#171=ORIENTED_EDGE('',*,*,#373,.F.);
#172=ORIENTED_EDGE('',*,*,#450,.F.);
#173=ORIENTED_EDGE('',*,*,#390,.T.);
#174=ORIENTED_EDGE('',*,*,#444,.T.);
#175=ORIENTED_EDGE('',*,*,#451,.T.);
#176=ORIENTED_EDGE('',*,*,#394,.T.);
#177=ORIENTED_EDGE('',*,*,#398,.F.);
#178=ORIENTED_EDGE('',*,*,#402,.T.);
#179=ORIENTED_EDGE('',*,*,#405,.T.);
#180=ORIENTED_EDGE('',*,*,#408,.T.);
#181=ORIENTED_EDGE('',*,*,#411,.T.);
#182=ORIENTED_EDGE('',*,*,#415,.T.);
#183=ORIENTED_EDGE('',*,*,#431,.T.);
#184=ORIENTED_EDGE('',*,*,#433,.T.);
#185=ORIENTED_EDGE('',*,*,#435,.T.);
#186=ORIENTED_EDGE('',*,*,#438,.T.);
#187=ORIENTED_EDGE('',*,*,#441,.F.);
#188=ORIENTED_EDGE('',*,*,#372,.F.);
#189=ORIENTED_EDGE('',*,*,#376,.T.);
#190=ORIENTED_EDGE('',*,*,#379,.F.);
#191=ORIENTED_EDGE('',*,*,#382,.F.);
#192=ORIENTED_EDGE('',*,*,#385,.F.);
#193=ORIENTED_EDGE('',*,*,#388,.F.);
#194=ORIENTED_EDGE('',*,*,#391,.F.);
#195=ORIENTED_EDGE('',*,*,#450,.T.);
#196=ORIENTED_EDGE('',*,*,#439,.T.);
#197=ORIENTED_EDGE('',*,*,#452,.T.);
#198=ORIENTED_EDGE('',*,*,#453,.F.);
#199=ORIENTED_EDGE('',*,*,#454,.F.);
#200=ORIENTED_EDGE('',*,*,#455,.F.);
#201=ORIENTED_EDGE('',*,*,#456,.F.);
#202=ORIENTED_EDGE('',*,*,#457,.F.);
#203=ORIENTED_EDGE('',*,*,#458,.F.);
#204=ORIENTED_EDGE('',*,*,#459,.F.);
#205=ORIENTED_EDGE('',*,*,#460,.F.);
#206=ORIENTED_EDGE('',*,*,#461,.F.);
#207=ORIENTED_EDGE('',*,*,#462,.T.);
#208=ORIENTED_EDGE('',*,*,#396,.T.);
#209=ORIENTED_EDGE('',*,*,#392,.F.);
#210=ORIENTED_EDGE('',*,*,#448,.F.);
#211=ORIENTED_EDGE('',*,*,#463,.F.);
#212=ORIENTED_EDGE('',*,*,#445,.F.);
#213=ORIENTED_EDGE('',*,*,#442,.F.);
#214=ORIENTED_EDGE('',*,*,#370,.T.);
#215=ORIENTED_EDGE('',*,*,#449,.F.);
#216=ORIENTED_EDGE('',*,*,#389,.T.);
#217=ORIENTED_EDGE('',*,*,#386,.T.);
#218=ORIENTED_EDGE('',*,*,#383,.T.);
#219=ORIENTED_EDGE('',*,*,#380,.T.);
#220=ORIENTED_EDGE('',*,*,#377,.T.);
#221=ORIENTED_EDGE('',*,*,#374,.F.);
#222=ORIENTED_EDGE('',*,*,#436,.F.);
#223=ORIENTED_EDGE('',*,*,#364,.T.);
#224=ORIENTED_EDGE('',*,*,#464,.T.);
#225=ORIENTED_EDGE('',*,*,#452,.F.);
#226=ORIENTED_EDGE('',*,*,#363,.F.);
#227=ORIENTED_EDGE('',*,*,#465,.T.);
#228=ORIENTED_EDGE('',*,*,#453,.T.);
#229=ORIENTED_EDGE('',*,*,#464,.F.);
#230=ORIENTED_EDGE('',*,*,#362,.F.);
#231=ORIENTED_EDGE('',*,*,#466,.T.);
#232=ORIENTED_EDGE('',*,*,#454,.T.);
#233=ORIENTED_EDGE('',*,*,#465,.F.);
#234=ORIENTED_EDGE('',*,*,#361,.F.);
#235=ORIENTED_EDGE('',*,*,#467,.T.);
#236=ORIENTED_EDGE('',*,*,#455,.T.);
#237=ORIENTED_EDGE('',*,*,#466,.F.);
#238=ORIENTED_EDGE('',*,*,#360,.F.);
#239=ORIENTED_EDGE('',*,*,#468,.T.);
#240=ORIENTED_EDGE('',*,*,#456,.T.);
#241=ORIENTED_EDGE('',*,*,#467,.F.);
#242=ORIENTED_EDGE('',*,*,#359,.F.);
#243=ORIENTED_EDGE('',*,*,#469,.T.);
#244=ORIENTED_EDGE('',*,*,#470,.T.);
#245=ORIENTED_EDGE('',*,*,#471,.T.);
#246=ORIENTED_EDGE('',*,*,#472,.T.);
#247=ORIENTED_EDGE('',*,*,#473,.T.);
#248=ORIENTED_EDGE('',*,*,#474,.T.);
#249=ORIENTED_EDGE('',*,*,#475,.T.);
#250=ORIENTED_EDGE('',*,*,#476,.T.);
#251=ORIENTED_EDGE('',*,*,#477,.T.);
#252=ORIENTED_EDGE('',*,*,#478,.T.);
#253=ORIENTED_EDGE('',*,*,#479,.T.);
#254=ORIENTED_EDGE('',*,*,#480,.T.);
#255=ORIENTED_EDGE('',*,*,#481,.T.);
#256=ORIENTED_EDGE('',*,*,#482,.T.);
#257=ORIENTED_EDGE('',*,*,#483,.T.);
#258=ORIENTED_EDGE('',*,*,#484,.F.);
#259=ORIENTED_EDGE('',*,*,#485,.T.);
#260=ORIENTED_EDGE('',*,*,#457,.T.);
#261=ORIENTED_EDGE('',*,*,#468,.F.);
#262=ORIENTED_EDGE('',*,*,#486,.F.);
#263=ORIENTED_EDGE('',*,*,#487,.T.);
#264=ORIENTED_EDGE('',*,*,#458,.T.);
#265=ORIENTED_EDGE('',*,*,#485,.F.);
#266=ORIENTED_EDGE('',*,*,#488,.F.);
#267=ORIENTED_EDGE('',*,*,#489,.T.);
#268=ORIENTED_EDGE('',*,*,#459,.T.);
#269=ORIENTED_EDGE('',*,*,#487,.F.);
#270=ORIENTED_EDGE('',*,*,#490,.F.);
#271=ORIENTED_EDGE('',*,*,#491,.T.);
#272=ORIENTED_EDGE('',*,*,#460,.T.);
#273=ORIENTED_EDGE('',*,*,#489,.F.);
#274=ORIENTED_EDGE('',*,*,#492,.F.);
#275=ORIENTED_EDGE('',*,*,#493,.T.);
#276=ORIENTED_EDGE('',*,*,#461,.T.);
#277=ORIENTED_EDGE('',*,*,#491,.F.);
#278=ORIENTED_EDGE('',*,*,#493,.F.);
#279=ORIENTED_EDGE('',*,*,#494,.T.);
#280=ORIENTED_EDGE('',*,*,#399,.T.);
#281=ORIENTED_EDGE('',*,*,#462,.F.);
#282=ORIENTED_EDGE('',*,*,#495,.F.);
#283=ORIENTED_EDGE('',*,*,#416,.F.);
#284=ORIENTED_EDGE('',*,*,#409,.F.);
#285=ORIENTED_EDGE('',*,*,#406,.F.);
#286=ORIENTED_EDGE('',*,*,#403,.F.);
#287=ORIENTED_EDGE('',*,*,#400,.F.);
#288=ORIENTED_EDGE('',*,*,#494,.F.);
#289=ORIENTED_EDGE('',*,*,#492,.T.);
#290=ORIENTED_EDGE('',*,*,#490,.T.);
#291=ORIENTED_EDGE('',*,*,#488,.T.);
#292=ORIENTED_EDGE('',*,*,#486,.T.);
#293=ORIENTED_EDGE('',*,*,#484,.T.);
#294=ORIENTED_EDGE('',*,*,#496,.T.);
#295=ORIENTED_EDGE('',*,*,#469,.F.);
#296=ORIENTED_EDGE('',*,*,#358,.T.);
#297=ORIENTED_EDGE('',*,*,#413,.F.);
#298=ORIENTED_EDGE('',*,*,#495,.T.);
#299=ORIENTED_EDGE('',*,*,#483,.F.);
#300=ORIENTED_EDGE('',*,*,#497,.F.);
#301=ORIENTED_EDGE('',*,*,#417,.F.);
#302=ORIENTED_EDGE('',*,*,#497,.T.);
#303=ORIENTED_EDGE('',*,*,#482,.F.);
#304=ORIENTED_EDGE('',*,*,#498,.F.);
#305=ORIENTED_EDGE('',*,*,#418,.F.);
#306=ORIENTED_EDGE('',*,*,#498,.T.);
#307=ORIENTED_EDGE('',*,*,#481,.F.);
#308=ORIENTED_EDGE('',*,*,#499,.F.);
#309=ORIENTED_EDGE('',*,*,#419,.F.);
#310=ORIENTED_EDGE('',*,*,#499,.T.);
#311=ORIENTED_EDGE('',*,*,#480,.F.);
#312=ORIENTED_EDGE('',*,*,#500,.F.);
#313=ORIENTED_EDGE('',*,*,#420,.F.);
#314=ORIENTED_EDGE('',*,*,#500,.T.);
#315=ORIENTED_EDGE('',*,*,#479,.F.);
#316=ORIENTED_EDGE('',*,*,#501,.F.);
#317=ORIENTED_EDGE('',*,*,#421,.F.);
#318=ORIENTED_EDGE('',*,*,#501,.T.);
#319=ORIENTED_EDGE('',*,*,#478,.F.);
#320=ORIENTED_EDGE('',*,*,#502,.F.);
#321=ORIENTED_EDGE('',*,*,#422,.F.);
#322=ORIENTED_EDGE('',*,*,#502,.T.);
#323=ORIENTED_EDGE('',*,*,#477,.F.);
#324=ORIENTED_EDGE('',*,*,#503,.F.);
#325=ORIENTED_EDGE('',*,*,#423,.F.);
#326=ORIENTED_EDGE('',*,*,#503,.T.);
#327=ORIENTED_EDGE('',*,*,#476,.F.);
#328=ORIENTED_EDGE('',*,*,#504,.F.);
#329=ORIENTED_EDGE('',*,*,#424,.F.);
#330=ORIENTED_EDGE('',*,*,#504,.T.);
#331=ORIENTED_EDGE('',*,*,#475,.F.);
#332=ORIENTED_EDGE('',*,*,#505,.F.);
#333=ORIENTED_EDGE('',*,*,#425,.F.);
#334=ORIENTED_EDGE('',*,*,#505,.T.);
#335=ORIENTED_EDGE('',*,*,#474,.F.);
#336=ORIENTED_EDGE('',*,*,#506,.F.);
#337=ORIENTED_EDGE('',*,*,#426,.F.);
#338=ORIENTED_EDGE('',*,*,#506,.T.);
#339=ORIENTED_EDGE('',*,*,#473,.F.);
#340=ORIENTED_EDGE('',*,*,#507,.F.);
#341=ORIENTED_EDGE('',*,*,#427,.F.);
#342=ORIENTED_EDGE('',*,*,#507,.T.);
#343=ORIENTED_EDGE('',*,*,#472,.F.);
#344=ORIENTED_EDGE('',*,*,#508,.F.);
#345=ORIENTED_EDGE('',*,*,#428,.F.);
#346=ORIENTED_EDGE('',*,*,#508,.T.);
#347=ORIENTED_EDGE('',*,*,#471,.F.);
#348=ORIENTED_EDGE('',*,*,#509,.F.);
#349=ORIENTED_EDGE('',*,*,#429,.F.);
#350=ORIENTED_EDGE('',*,*,#509,.T.);
#351=ORIENTED_EDGE('',*,*,#470,.F.);
#352=ORIENTED_EDGE('',*,*,#496,.F.);
#353=ORIENTED_EDGE('',*,*,#412,.F.);
#354=ORIENTED_EDGE('',*,*,#446,.F.);
#355=ORIENTED_EDGE('',*,*,#463,.T.);
#356=ORIENTED_EDGE('',*,*,#447,.F.);
#357=ORIENTED_EDGE('',*,*,#451,.F.);
#358=EDGE_CURVE('',#510,#511,#610,.T.);
#359=EDGE_CURVE('',#510,#512,#611,.T.);
#360=EDGE_CURVE('',#512,#513,#28,.F.);
#361=EDGE_CURVE('',#513,#514,#612,.T.);
#362=EDGE_CURVE('',#514,#515,#29,.F.);
#363=EDGE_CURVE('',#515,#516,#613,.T.);
#364=EDGE_CURVE('',#517,#516,#30,.F.);
#365=EDGE_CURVE('',#518,#517,#614,.T.);
#366=EDGE_CURVE('',#519,#518,#31,.F.);
#367=EDGE_CURVE('',#520,#519,#615,.T.);
#368=EDGE_CURVE('',#521,#520,#32,.F.);
#369=EDGE_CURVE('',#511,#521,#616,.T.);
#370=EDGE_CURVE('',#522,#523,#617,.T.);
#371=EDGE_CURVE('',#524,#522,#618,.T.);
#372=EDGE_CURVE('',#524,#525,#619,.T.);
#373=EDGE_CURVE('',#525,#523,#620,.T.);
#374=EDGE_CURVE('',#522,#526,#33,.T.);
#375=EDGE_CURVE('',#527,#526,#621,.T.);
#376=EDGE_CURVE('',#524,#527,#34,.T.);
#377=EDGE_CURVE('',#528,#526,#622,.T.);
#378=EDGE_CURVE('',#529,#528,#623,.T.);
#379=EDGE_CURVE('',#529,#527,#624,.T.);
#380=EDGE_CURVE('',#530,#528,#625,.T.);
#381=EDGE_CURVE('',#531,#530,#626,.T.);
#382=EDGE_CURVE('',#531,#529,#627,.T.);
#383=EDGE_CURVE('',#532,#530,#628,.T.);
#384=EDGE_CURVE('',#533,#532,#629,.T.);
#385=EDGE_CURVE('',#533,#531,#630,.T.);
#386=EDGE_CURVE('',#534,#532,#631,.T.);
#387=EDGE_CURVE('',#535,#534,#632,.T.);
#388=EDGE_CURVE('',#535,#533,#633,.T.);
#389=EDGE_CURVE('',#536,#534,#634,.T.);
#390=EDGE_CURVE('',#537,#536,#635,.T.);
#391=EDGE_CURVE('',#537,#535,#636,.T.);
#392=EDGE_CURVE('',#538,#539,#637,.T.);
#393=EDGE_CURVE('',#540,#539,#638,.T.);
#394=EDGE_CURVE('',#541,#540,#639,.T.);
#395=EDGE_CURVE('',#541,#538,#640,.T.);
#396=EDGE_CURVE('',#542,#539,#641,.T.);
#397=EDGE_CURVE('',#543,#542,#642,.T.);
#398=EDGE_CURVE('',#543,#540,#643,.T.);
#399=EDGE_CURVE('',#544,#542,#644,.T.);
#400=EDGE_CURVE('',#544,#545,#645,.T.);
#401=EDGE_CURVE('',#546,#545,#646,.T.);
#402=EDGE_CURVE('',#543,#546,#647,.T.);
#403=EDGE_CURVE('',#545,#547,#35,.F.);
#404=EDGE_CURVE('',#548,#547,#648,.T.);
#405=EDGE_CURVE('',#546,#548,#36,.T.);
#406=EDGE_CURVE('',#547,#549,#649,.T.);
#407=EDGE_CURVE('',#550,#549,#650,.T.);
#408=EDGE_CURVE('',#548,#550,#651,.T.);
#409=EDGE_CURVE('',#549,#551,#37,.F.);
#410=EDGE_CURVE('',#552,#551,#652,.T.);
#411=EDGE_CURVE('',#550,#552,#38,.T.);
#412=EDGE_CURVE('',#553,#554,#653,.T.);
#413=EDGE_CURVE('',#554,#511,#654,.T.);
#414=EDGE_CURVE('',#555,#521,#655,.T.);
#415=EDGE_CURVE('',#552,#555,#656,.T.);
#416=EDGE_CURVE('',#551,#556,#657,.T.);
#417=EDGE_CURVE('',#556,#557,#658,.T.);
#418=EDGE_CURVE('',#557,#558,#659,.T.);
#419=EDGE_CURVE('',#558,#559,#660,.T.);
#420=EDGE_CURVE('',#559,#560,#661,.T.);
#421=EDGE_CURVE('',#560,#561,#662,.T.);
#422=EDGE_CURVE('',#561,#562,#663,.T.);
#423=EDGE_CURVE('',#562,#563,#664,.T.);
#424=EDGE_CURVE('',#563,#564,#665,.T.);
#425=EDGE_CURVE('',#564,#565,#666,.T.);
#426=EDGE_CURVE('',#565,#566,#667,.T.);
#427=EDGE_CURVE('',#566,#567,#668,.T.);
#428=EDGE_CURVE('',#567,#568,#669,.T.);
#429=EDGE_CURVE('',#568,#553,#670,.T.);
#430=EDGE_CURVE('',#569,#520,#671,.T.);
#431=EDGE_CURVE('',#555,#569,#39,.T.);
#432=EDGE_CURVE('',#570,#519,#672,.T.);
#433=EDGE_CURVE('',#569,#570,#673,.T.);
#434=EDGE_CURVE('',#571,#518,#674,.T.);
#435=EDGE_CURVE('',#570,#571,#40,.T.);
#436=EDGE_CURVE('',#517,#572,#675,.T.);
#437=EDGE_CURVE('',#573,#572,#676,.T.);
#438=EDGE_CURVE('',#571,#573,#677,.T.);
#439=EDGE_CURVE('',#574,#572,#678,.T.);
#440=EDGE_CURVE('',#575,#574,#679,.T.);
#441=EDGE_CURVE('',#575,#573,#680,.T.);
#442=EDGE_CURVE('',#574,#576,#681,.F.);
#443=EDGE_CURVE('',#577,#576,#682,.T.);
#444=EDGE_CURVE('',#575,#577,#683,.F.);
#445=EDGE_CURVE('',#576,#578,#41,.T.);
#446=EDGE_CURVE('',#578,#577,#12,.F.);
#447=EDGE_CURVE('',#541,#579,#13,.F.);
#448=EDGE_CURVE('',#579,#538,#42,.T.);
#449=EDGE_CURVE('',#536,#523,#43,.T.);
#450=EDGE_CURVE('',#537,#525,#44,.T.);
#451=EDGE_CURVE('',#577,#541,#684,.T.);
#452=EDGE_CURVE('',#572,#580,#45,.T.);
#453=EDGE_CURVE('',#581,#580,#685,.T.);
#454=EDGE_CURVE('',#582,#581,#46,.T.);
#455=EDGE_CURVE('',#583,#582,#686,.T.);
#456=EDGE_CURVE('',#584,#583,#47,.T.);
#457=EDGE_CURVE('',#585,#584,#687,.T.);
#458=EDGE_CURVE('',#586,#585,#48,.T.);
#459=EDGE_CURVE('',#587,#586,#688,.T.);
#460=EDGE_CURVE('',#588,#587,#49,.T.);
#461=EDGE_CURVE('',#589,#588,#689,.T.);
#462=EDGE_CURVE('',#589,#542,#50,.T.);
#463=EDGE_CURVE('',#578,#579,#690,.F.);
#464=EDGE_CURVE('',#516,#580,#691,.T.);
#465=EDGE_CURVE('',#515,#581,#692,.T.);
#466=EDGE_CURVE('',#514,#582,#693,.T.);
#467=EDGE_CURVE('',#513,#583,#694,.T.);
#468=EDGE_CURVE('',#512,#584,#695,.T.);
#469=EDGE_CURVE('',#510,#590,#696,.T.);
#470=EDGE_CURVE('',#590,#591,#697,.T.);
#471=EDGE_CURVE('',#591,#592,#698,.T.);
#472=EDGE_CURVE('',#592,#593,#699,.T.);
#473=EDGE_CURVE('',#593,#594,#700,.T.);
#474=EDGE_CURVE('',#594,#595,#701,.T.);
#475=EDGE_CURVE('',#595,#596,#702,.T.);
#476=EDGE_CURVE('',#596,#597,#703,.T.);
#477=EDGE_CURVE('',#597,#598,#704,.T.);
#478=EDGE_CURVE('',#598,#599,#705,.T.);
#479=EDGE_CURVE('',#599,#600,#706,.T.);
#480=EDGE_CURVE('',#600,#601,#707,.T.);
#481=EDGE_CURVE('',#601,#602,#708,.T.);
#482=EDGE_CURVE('',#602,#603,#709,.T.);
#483=EDGE_CURVE('',#603,#604,#710,.T.);
#484=EDGE_CURVE('',#605,#604,#711,.T.);
#485=EDGE_CURVE('',#605,#585,#712,.T.);
#486=EDGE_CURVE('',#606,#605,#51,.F.);
#487=EDGE_CURVE('',#606,#586,#713,.T.);
#488=EDGE_CURVE('',#607,#606,#714,.T.);
#489=EDGE_CURVE('',#607,#587,#715,.T.);
#490=EDGE_CURVE('',#608,#607,#52,.F.);
#491=EDGE_CURVE('',#608,#588,#716,.T.);
#492=EDGE_CURVE('',#609,#608,#717,.T.);
#493=EDGE_CURVE('',#609,#589,#718,.T.);
#494=EDGE_CURVE('',#609,#544,#53,.F.);
#495=EDGE_CURVE('',#556,#604,#719,.T.);
#496=EDGE_CURVE('',#554,#590,#720,.T.);
#497=EDGE_CURVE('',#557,#603,#721,.T.);
#498=EDGE_CURVE('',#558,#602,#722,.T.);
#499=EDGE_CURVE('',#559,#601,#723,.T.);
#500=EDGE_CURVE('',#560,#600,#724,.T.);
#501=EDGE_CURVE('',#561,#599,#725,.T.);
#502=EDGE_CURVE('',#562,#598,#726,.T.);
#503=EDGE_CURVE('',#563,#597,#727,.T.);
#504=EDGE_CURVE('',#564,#596,#728,.T.);
#505=EDGE_CURVE('',#565,#595,#729,.T.);
#506=EDGE_CURVE('',#566,#594,#730,.T.);
#507=EDGE_CURVE('',#567,#593,#731,.T.);
#508=EDGE_CURVE('',#568,#592,#732,.T.);
#509=EDGE_CURVE('',#553,#591,#733,.T.);
#510=VERTEX_POINT('',#1452);
#511=VERTEX_POINT('',#1453);
#512=VERTEX_POINT('',#1455);
#513=VERTEX_POINT('',#1457);
#514=VERTEX_POINT('',#1459);
#515=VERTEX_POINT('',#1461);
#516=VERTEX_POINT('',#1463);
#517=VERTEX_POINT('',#1465);
#518=VERTEX_POINT('',#1467);
#519=VERTEX_POINT('',#1469);
#520=VERTEX_POINT('',#1471);
#521=VERTEX_POINT('',#1473);
#522=VERTEX_POINT('',#1477);
#523=VERTEX_POINT('',#1478);
#524=VERTEX_POINT('',#1480);
#525=VERTEX_POINT('',#1482);
#526=VERTEX_POINT('',#1486);
#527=VERTEX_POINT('',#1488);
#528=VERTEX_POINT('',#1492);
#529=VERTEX_POINT('',#1494);
#530=VERTEX_POINT('',#1498);
#531=VERTEX_POINT('',#1500);
#532=VERTEX_POINT('',#1504);
#533=VERTEX_POINT('',#1506);
#534=VERTEX_POINT('',#1510);
#535=VERTEX_POINT('',#1512);
#536=VERTEX_POINT('',#1516);
#537=VERTEX_POINT('',#1518);
#538=VERTEX_POINT('',#1522);
#539=VERTEX_POINT('',#1523);
#540=VERTEX_POINT('',#1525);
#541=VERTEX_POINT('',#1527);
#542=VERTEX_POINT('',#1531);
#543=VERTEX_POINT('',#1533);
#544=VERTEX_POINT('',#1537);
#545=VERTEX_POINT('',#1539);
#546=VERTEX_POINT('',#1541);
#547=VERTEX_POINT('',#1545);
#548=VERTEX_POINT('',#1547);
#549=VERTEX_POINT('',#1551);
#550=VERTEX_POINT('',#1553);
#551=VERTEX_POINT('',#1557);
#552=VERTEX_POINT('',#1559);
#553=VERTEX_POINT('',#1563);
#554=VERTEX_POINT('',#1564);
#555=VERTEX_POINT('',#1567);
#556=VERTEX_POINT('',#1570);
#557=VERTEX_POINT('',#1572);
#558=VERTEX_POINT('',#1574);
#559=VERTEX_POINT('',#1576);
#560=VERTEX_POINT('',#1578);
#561=VERTEX_POINT('',#1580);
#562=VERTEX_POINT('',#1582);
#563=VERTEX_POINT('',#1584);
#564=VERTEX_POINT('',#1586);
#565=VERTEX_POINT('',#1588);
#566=VERTEX_POINT('',#1590);
#567=VERTEX_POINT('',#1592);
#568=VERTEX_POINT('',#1594);
#569=VERTEX_POINT('',#1598);
#570=VERTEX_POINT('',#1602);
#571=VERTEX_POINT('',#1606);
#572=VERTEX_POINT('',#1610);
#573=VERTEX_POINT('',#1612);
#574=VERTEX_POINT('',#1616);
#575=VERTEX_POINT('',#1618);
#576=VERTEX_POINT('',#1622);
#577=VERTEX_POINT('',#1624);
#578=VERTEX_POINT('',#1628);
#579=VERTEX_POINT('',#1632);
#580=VERTEX_POINT('',#1641);
#581=VERTEX_POINT('',#1643);
#582=VERTEX_POINT('',#1645);
#583=VERTEX_POINT('',#1647);
#584=VERTEX_POINT('',#1649);
#585=VERTEX_POINT('',#1651);
#586=VERTEX_POINT('',#1653);
#587=VERTEX_POINT('',#1655);
#588=VERTEX_POINT('',#1657);
#589=VERTEX_POINT('',#1659);
#590=VERTEX_POINT('',#1674);
#591=VERTEX_POINT('',#1676);
#592=VERTEX_POINT('',#1678);
#593=VERTEX_POINT('',#1680);
#594=VERTEX_POINT('',#1682);
#595=VERTEX_POINT('',#1684);
#596=VERTEX_POINT('',#1686);
#597=VERTEX_POINT('',#1688);
#598=VERTEX_POINT('',#1690);
#599=VERTEX_POINT('',#1692);
#600=VERTEX_POINT('',#1694);
#601=VERTEX_POINT('',#1696);
#602=VERTEX_POINT('',#1698);
#603=VERTEX_POINT('',#1700);
#604=VERTEX_POINT('',#1702);
#605=VERTEX_POINT('',#1704);
#606=VERTEX_POINT('',#1708);
#607=VERTEX_POINT('',#1712);
#608=VERTEX_POINT('',#1716);
#609=VERTEX_POINT('',#1720);
#610=LINE('',#1451,#734);
#611=LINE('',#1454,#735);
#612=LINE('',#1458,#736);
#613=LINE('',#1462,#737);
#614=LINE('',#1466,#738);
#615=LINE('',#1470,#739);
#616=LINE('',#1474,#740);
#617=LINE('',#1476,#741);
#618=LINE('',#1479,#742);
#619=LINE('',#1481,#743);
#620=LINE('',#1483,#744);
#621=LINE('',#1487,#745);
#622=LINE('',#1491,#746);
#623=LINE('',#1493,#747);
#624=LINE('',#1495,#748);
#625=LINE('',#1497,#749);
#626=LINE('',#1499,#750);
#627=LINE('',#1501,#751);
#628=LINE('',#1503,#752);
#629=LINE('',#1505,#753);
#630=LINE('',#1507,#754);
#631=LINE('',#1509,#755);
#632=LINE('',#1511,#756);
#633=LINE('',#1513,#757);
#634=LINE('',#1515,#758);
#635=LINE('',#1517,#759);
#636=LINE('',#1519,#760);
#637=LINE('',#1521,#761);
#638=LINE('',#1524,#762);
#639=LINE('',#1526,#763);
#640=LINE('',#1528,#764);
#641=LINE('',#1530,#765);
#642=LINE('',#1532,#766);
#643=LINE('',#1534,#767);
#644=LINE('',#1536,#768);
#645=LINE('',#1538,#769);
#646=LINE('',#1540,#770);
#647=LINE('',#1542,#771);
#648=LINE('',#1546,#772);
#649=LINE('',#1550,#773);
#650=LINE('',#1552,#774);
#651=LINE('',#1554,#775);
#652=LINE('',#1558,#776);
#653=LINE('',#1562,#777);
#654=LINE('',#1565,#778);
#655=LINE('',#1566,#779);
#656=LINE('',#1568,#780);
#657=LINE('',#1569,#781);
#658=LINE('',#1571,#782);
#659=LINE('',#1573,#783);
#660=LINE('',#1575,#784);
#661=LINE('',#1577,#785);
#662=LINE('',#1579,#786);
#663=LINE('',#1581,#787);
#664=LINE('',#1583,#788);
#665=LINE('',#1585,#789);
#666=LINE('',#1587,#790);
#667=LINE('',#1589,#791);
#668=LINE('',#1591,#792);
#669=LINE('',#1593,#793);
#670=LINE('',#1595,#794);
#671=LINE('',#1597,#795);
#672=LINE('',#1601,#796);
#673=LINE('',#1603,#797);
#674=LINE('',#1605,#798);
#675=LINE('',#1609,#799);
#676=LINE('',#1611,#800);
#677=LINE('',#1613,#801);
#678=LINE('',#1615,#802);
#679=LINE('',#1617,#803);
#680=LINE('',#1619,#804);
#681=LINE('',#1621,#805);
#682=LINE('',#1623,#806);
#683=LINE('',#1625,#807);
#684=LINE('',#1638,#808);
#685=LINE('',#1642,#809);
#686=LINE('',#1646,#810);
#687=LINE('',#1650,#811);
#688=LINE('',#1654,#812);
#689=LINE('',#1658,#813);
#690=LINE('',#1661,#814);
#691=LINE('',#1663,#815);
#692=LINE('',#1665,#816);
#693=LINE('',#1667,#817);
#694=LINE('',#1669,#818);
#695=LINE('',#1671,#819);
#696=LINE('',#1673,#820);
#697=LINE('',#1675,#821);
#698=LINE('',#1677,#822);
#699=LINE('',#1679,#823);
#700=LINE('',#1681,#824);
#701=LINE('',#1683,#825);
#702=LINE('',#1685,#826);
#703=LINE('',#1687,#827);
#704=LINE('',#1689,#828);
#705=LINE('',#1691,#829);
#706=LINE('',#1693,#830);
#707=LINE('',#1695,#831);
#708=LINE('',#1697,#832);
#709=LINE('',#1699,#833);
#710=LINE('',#1701,#834);
#711=LINE('',#1703,#835);
#712=LINE('',#1705,#836);
#713=LINE('',#1709,#837);
#714=LINE('',#1711,#838);
#715=LINE('',#1713,#839);
#716=LINE('',#1717,#840);
#717=LINE('',#1719,#841);
#718=LINE('',#1721,#842);
#719=LINE('',#1725,#843);
#720=LINE('',#1727,#844);
#721=LINE('',#1729,#845);
#722=LINE('',#1731,#846);
#723=LINE('',#1733,#847);
#724=LINE('',#1735,#848);
#725=LINE('',#1737,#849);
#726=LINE('',#1739,#850);
#727=LINE('',#1741,#851);
#728=LINE('',#1743,#852);
#729=LINE('',#1745,#853);
#730=LINE('',#1747,#854);
#731=LINE('',#1749,#855);
#732=LINE('',#1751,#856);
#733=LINE('',#1753,#857);
#734=VECTOR('',#1163,1.);
#735=VECTOR('',#1164,1.);
#736=VECTOR('',#1167,1.);
#737=VECTOR('',#1170,1.);
#738=VECTOR('',#1173,1.);
#739=VECTOR('',#1176,1.);
#740=VECTOR('',#1179,1.);
#741=VECTOR('',#1182,1.);
#742=VECTOR('',#1183,1.);
#743=VECTOR('',#1184,1.);
#744=VECTOR('',#1185,1.);
#745=VECTOR('',#1190,1.);
#746=VECTOR('',#1195,1.);
#747=VECTOR('',#1196,1.);
#748=VECTOR('',#1197,1.);
#749=VECTOR('',#1200,1.);
#750=VECTOR('',#1201,1.);
#751=VECTOR('',#1202,1.);
#752=VECTOR('',#1205,1.);
#753=VECTOR('',#1206,1.);
#754=VECTOR('',#1207,1.);
#755=VECTOR('',#1210,1.);
#756=VECTOR('',#1211,1.);
#757=VECTOR('',#1212,1.);
#758=VECTOR('',#1215,1.);
#759=VECTOR('',#1216,1.);
#760=VECTOR('',#1217,1.);
#761=VECTOR('',#1220,1.);
#762=VECTOR('',#1221,1.);
#763=VECTOR('',#1222,1.);
#764=VECTOR('',#1223,1.);
#765=VECTOR('',#1226,1.);
#766=VECTOR('',#1227,1.);
#767=VECTOR('',#1228,1.);
#768=VECTOR('',#1231,1.);
#769=VECTOR('',#1232,1.);
#770=VECTOR('',#1233,1.);
#771=VECTOR('',#1234,1.);
#772=VECTOR('',#1239,1.);
#773=VECTOR('',#1244,1.);
#774=VECTOR('',#1245,1.);
#775=VECTOR('',#1246,1.);
#776=VECTOR('',#1251,1.);
#777=VECTOR('',#1256,1.);
#778=VECTOR('',#1257,1.);
#779=VECTOR('',#1258,1.);
#780=VECTOR('',#1259,1.);
#781=VECTOR('',#1260,1.);
#782=VECTOR('',#1261,1.);
#783=VECTOR('',#1262,1.);
#784=VECTOR('',#1263,1.);
#785=VECTOR('',#1264,1.);
#786=VECTOR('',#1265,1.);
#787=VECTOR('',#1266,1.);
#788=VECTOR('',#1267,1.);
#789=VECTOR('',#1268,1.);
#790=VECTOR('',#1269,1.);
#791=VECTOR('',#1270,1.);
#792=VECTOR('',#1271,1.);
#793=VECTOR('',#1272,1.);
#794=VECTOR('',#1273,1.);
#795=VECTOR('',#1276,1.);
#796=VECTOR('',#1281,1.);
#797=VECTOR('',#1282,1.);
#798=VECTOR('',#1285,1.);
#799=VECTOR('',#1290,1.);
#800=VECTOR('',#1291,1.);
#801=VECTOR('',#1292,1.);
#802=VECTOR('',#1295,1.);
#803=VECTOR('',#1296,1.);
#804=VECTOR('',#1297,1.);
#805=VECTOR('',#1300,1.);
#806=VECTOR('',#1301,1.);
#807=VECTOR('',#1302,1.);
#808=VECTOR('',#1323,1.);
#809=VECTOR('',#1328,1.);
#810=VECTOR('',#1331,1.);
#811=VECTOR('',#1334,1.);
#812=VECTOR('',#1337,1.);
#813=VECTOR('',#1340,1.);
#814=VECTOR('',#1343,1.);
#815=VECTOR('',#1346,1.);
#816=VECTOR('',#1349,1.);
#817=VECTOR('',#1352,1.);
#818=VECTOR('',#1355,1.);
#819=VECTOR('',#1358,1.);
#820=VECTOR('',#1361,1.);
#821=VECTOR('',#1362,1.);
#822=VECTOR('',#1363,1.);
#823=VECTOR('',#1364,1.);
#824=VECTOR('',#1365,1.);
#825=VECTOR('',#1366,1.);
#826=VECTOR('',#1367,1.);
#827=VECTOR('',#1368,1.);
#828=VECTOR('',#1369,1.);
#829=VECTOR('',#1370,1.);
#830=VECTOR('',#1371,1.);
#831=VECTOR('',#1372,1.);
#832=VECTOR('',#1373,1.);
#833=VECTOR('',#1374,1.);
#834=VECTOR('',#1375,1.);
#835=VECTOR('',#1376,1.);
#836=VECTOR('',#1377,1.);
#837=VECTOR('',#1382,1.);
#838=VECTOR('',#1385,1.);
#839=VECTOR('',#1386,1.);
#840=VECTOR('',#1391,1.);
#841=VECTOR('',#1394,1.);
#842=VECTOR('',#1395,1.);
#843=VECTOR('',#1402,1.);
#844=VECTOR('',#1405,1.);
#845=VECTOR('',#1408,1.);
#846=VECTOR('',#1411,1.);
#847=VECTOR('',#1414,1.);
#848=VECTOR('',#1417,1.);
#849=VECTOR('',#1420,1.);
#850=VECTOR('',#1423,1.);
#851=VECTOR('',#1426,1.);
#852=VECTOR('',#1429,1.);
#853=VECTOR('',#1432,1.);
#854=VECTOR('',#1435,1.);
#855=VECTOR('',#1438,1.);
#856=VECTOR('',#1441,1.);
#857=VECTOR('',#1444,1.);
#858=EDGE_LOOP('',(#54,#55,#56,#57,#58,#59,#60,#61,#62,#63,#64,#65));
#859=EDGE_LOOP('',(#66,#67,#68,#69));
#860=EDGE_LOOP('',(#70,#71,#72,#73));
#861=EDGE_LOOP('',(#74,#75,#76,#77));
#862=EDGE_LOOP('',(#78,#79,#80,#81));
#863=EDGE_LOOP('',(#82,#83,#84,#85));
#864=EDGE_LOOP('',(#86,#87,#88,#89));
#865=EDGE_LOOP('',(#90,#91,#92,#93));
#866=EDGE_LOOP('',(#94,#95,#96,#97));
#867=EDGE_LOOP('',(#98,#99,#100,#101));
#868=EDGE_LOOP('',(#102,#103,#104,#105,#106));
#869=EDGE_LOOP('',(#107,#108,#109,#110));
#870=EDGE_LOOP('',(#111,#112,#113,#114));
#871=EDGE_LOOP('',(#115,#116,#117,#118));
#872=EDGE_LOOP('',(#119,#120,#121,#122,#123,#124,#125,#126,#127,#128,#129,
#130,#131,#132,#133,#134,#135,#136,#137,#138));
#873=EDGE_LOOP('',(#139,#140,#141,#142));
#874=EDGE_LOOP('',(#143,#144,#145,#146));
#875=EDGE_LOOP('',(#147,#148,#149,#150));
#876=EDGE_LOOP('',(#151,#152,#153,#154,#155));
#877=EDGE_LOOP('',(#156,#157,#158,#159));
#878=EDGE_LOOP('',(#160,#161,#162,#163));
#879=EDGE_LOOP('',(#164,#165,#166));
#880=EDGE_LOOP('',(#167,#168,#169));
#881=EDGE_LOOP('',(#170,#171,#172,#173));
#882=EDGE_LOOP('',(#174,#175,#176,#177,#178,#179,#180,#181,#182,#183,#184,
#185,#186,#187));
#883=EDGE_LOOP('',(#188,#189,#190,#191,#192,#193,#194,#195));
#884=EDGE_LOOP('',(#196,#197,#198,#199,#200,#201,#202,#203,#204,#205,#206,
#207,#208,#209,#210,#211,#212,#213));
#885=EDGE_LOOP('',(#214,#215,#216,#217,#218,#219,#220,#221));
#886=EDGE_LOOP('',(#222,#223,#224,#225));
#887=EDGE_LOOP('',(#226,#227,#228,#229));
#888=EDGE_LOOP('',(#230,#231,#232,#233));
#889=EDGE_LOOP('',(#234,#235,#236,#237));
#890=EDGE_LOOP('',(#238,#239,#240,#241));
#891=EDGE_LOOP('',(#242,#243,#244,#245,#246,#247,#248,#249,#250,#251,#252,
#253,#254,#255,#256,#257,#258,#259,#260,#261));
#892=EDGE_LOOP('',(#262,#263,#264,#265));
#893=EDGE_LOOP('',(#266,#267,#268,#269));
#894=EDGE_LOOP('',(#270,#271,#272,#273));
#895=EDGE_LOOP('',(#274,#275,#276,#277));
#896=EDGE_LOOP('',(#278,#279,#280,#281));
#897=EDGE_LOOP('',(#282,#283,#284,#285,#286,#287,#288,#289,#290,#291,#292,
#293));
#898=EDGE_LOOP('',(#294,#295,#296,#297));
#899=EDGE_LOOP('',(#298,#299,#300,#301));
#900=EDGE_LOOP('',(#302,#303,#304,#305));
#901=EDGE_LOOP('',(#306,#307,#308,#309));
#902=EDGE_LOOP('',(#310,#311,#312,#313));
#903=EDGE_LOOP('',(#314,#315,#316,#317));
#904=EDGE_LOOP('',(#318,#319,#320,#321));
#905=EDGE_LOOP('',(#322,#323,#324,#325));
#906=EDGE_LOOP('',(#326,#327,#328,#329));
#907=EDGE_LOOP('',(#330,#331,#332,#333));
#908=EDGE_LOOP('',(#334,#335,#336,#337));
#909=EDGE_LOOP('',(#338,#339,#340,#341));
#910=EDGE_LOOP('',(#342,#343,#344,#345));
#911=EDGE_LOOP('',(#346,#347,#348,#349));
#912=EDGE_LOOP('',(#350,#351,#352,#353));
#913=EDGE_LOOP('',(#354,#355,#356,#357));
#914=FACE_BOUND('',#858,.T.);
#915=FACE_BOUND('',#859,.T.);
#916=FACE_BOUND('',#860,.T.);
#917=FACE_BOUND('',#861,.T.);
#918=FACE_BOUND('',#862,.T.);
#919=FACE_BOUND('',#863,.T.);
#920=FACE_BOUND('',#864,.T.);
#921=FACE_BOUND('',#865,.T.);
#922=FACE_BOUND('',#866,.T.);
#923=FACE_BOUND('',#867,.T.);
#924=FACE_BOUND('',#868,.T.);
#925=FACE_BOUND('',#869,.T.);
#926=FACE_BOUND('',#870,.T.);
#927=FACE_BOUND('',#871,.T.);
#928=FACE_BOUND('',#872,.T.);
#929=FACE_BOUND('',#873,.T.);
#930=FACE_BOUND('',#874,.T.);
#931=FACE_BOUND('',#875,.T.);
#932=FACE_BOUND('',#876,.T.);
#933=FACE_BOUND('',#877,.T.);
#934=FACE_BOUND('',#878,.T.);
#935=FACE_BOUND('',#879,.T.);
#936=FACE_BOUND('',#880,.T.);
#937=FACE_BOUND('',#881,.T.);
#938=FACE_BOUND('',#882,.T.);
#939=FACE_BOUND('',#883,.T.);
#940=FACE_BOUND('',#884,.T.);
#941=FACE_BOUND('',#885,.T.);
#942=FACE_BOUND('',#886,.T.);
#943=FACE_BOUND('',#887,.T.);
#944=FACE_BOUND('',#888,.T.);
#945=FACE_BOUND('',#889,.T.);
#946=FACE_BOUND('',#890,.T.);
#947=FACE_BOUND('',#891,.T.);
#948=FACE_BOUND('',#892,.T.);
#949=FACE_BOUND('',#893,.T.);
#950=FACE_BOUND('',#894,.T.);
#951=FACE_BOUND('',#895,.T.);
#952=FACE_BOUND('',#896,.T.);
#953=FACE_BOUND('',#897,.T.);
#954=FACE_BOUND('',#898,.T.);
#955=FACE_BOUND('',#899,.T.);
#956=FACE_BOUND('',#900,.T.);
#957=FACE_BOUND('',#901,.T.);
#958=FACE_BOUND('',#902,.T.);
#959=FACE_BOUND('',#903,.T.);
#960=FACE_BOUND('',#904,.T.);
#961=FACE_BOUND('',#905,.T.);
#962=FACE_BOUND('',#906,.T.);
#963=FACE_BOUND('',#907,.T.);
#964=FACE_BOUND('',#908,.T.);
#965=FACE_BOUND('',#909,.T.);
#966=FACE_BOUND('',#910,.T.);
#967=FACE_BOUND('',#911,.T.);
#968=FACE_BOUND('',#912,.T.);
#969=FACE_BOUND('',#913,.T.);
#970=PLANE('',#1077);
#971=PLANE('',#1083);
#972=PLANE('',#1087);
#973=PLANE('',#1088);
#974=PLANE('',#1089);
#975=PLANE('',#1090);
#976=PLANE('',#1091);
#977=PLANE('',#1092);
#978=PLANE('',#1093);
#979=PLANE('',#1094);
#980=PLANE('',#1098);
#981=PLANE('',#1102);
#982=PLANE('',#1105);
#983=PLANE('',#1108);
#984=PLANE('',#1109);
#985=PLANE('',#1110);
#986=PLANE('',#1120);
#987=PLANE('',#1121);
#988=PLANE('',#1129);
#989=PLANE('',#1131);
#990=PLANE('',#1133);
#991=PLANE('',#1136);
#992=PLANE('',#1139);
#993=PLANE('',#1142);
#994=PLANE('',#1143);
#995=PLANE('',#1144);
#996=PLANE('',#1145);
#997=PLANE('',#1146);
#998=PLANE('',#1147);
#999=PLANE('',#1148);
#1000=PLANE('',#1149);
#1001=PLANE('',#1150);
#1002=PLANE('',#1151);
#1003=PLANE('',#1152);
#1004=PLANE('',#1153);
#1005=PLANE('',#1154);
#1006=PLANE('',#1155);
#1007=PLANE('',#1156);
#1008=PLANE('',#1157);
#1009=PLANE('',#1158);
#1010=ADVANCED_FACE('',(#914),#970,.T.);
#1011=ADVANCED_FACE('',(#915),#971,.T.);
#1012=ADVANCED_FACE('',(#916),#14,.T.);
#1013=ADVANCED_FACE('',(#917),#972,.T.);
#1014=ADVANCED_FACE('',(#918),#973,.T.);
#1015=ADVANCED_FACE('',(#919),#974,.T.);
#1016=ADVANCED_FACE('',(#920),#975,.T.);
#1017=ADVANCED_FACE('',(#921),#976,.T.);
#1018=ADVANCED_FACE('',(#922),#977,.F.);
#1019=ADVANCED_FACE('',(#923),#978,.T.);
#1020=ADVANCED_FACE('',(#924),#979,.F.);
#1021=ADVANCED_FACE('',(#925),#15,.T.);
#1022=ADVANCED_FACE('',(#926),#980,.F.);
#1023=ADVANCED_FACE('',(#927),#16,.T.);
#1024=ADVANCED_FACE('',(#928),#981,.F.);
#1025=ADVANCED_FACE('',(#929),#17,.T.);
#1026=ADVANCED_FACE('',(#930),#982,.F.);
#1027=ADVANCED_FACE('',(#931),#18,.T.);
#1028=ADVANCED_FACE('',(#932),#983,.F.);
#1029=ADVANCED_FACE('',(#933),#984,.T.);
#1030=ADVANCED_FACE('',(#934),#985,.F.);
#1031=ADVANCED_FACE('',(#935),#19,.T.);
#1032=ADVANCED_FACE('',(#936),#20,.T.);
#1033=ADVANCED_FACE('',(#937),#21,.T.);
#1034=ADVANCED_FACE('',(#938,#939),#986,.T.);
#1035=ADVANCED_FACE('',(#940,#941),#987,.F.);
#1036=ADVANCED_FACE('',(#942),#22,.T.);
#1037=ADVANCED_FACE('',(#943),#988,.F.);
#1038=ADVANCED_FACE('',(#944),#23,.F.);
#1039=ADVANCED_FACE('',(#945),#989,.F.);
#1040=ADVANCED_FACE('',(#946),#24,.F.);
#1041=ADVANCED_FACE('',(#947),#990,.F.);
#1042=ADVANCED_FACE('',(#948),#25,.F.);
#1043=ADVANCED_FACE('',(#949),#991,.F.);
#1044=ADVANCED_FACE('',(#950),#26,.F.);
#1045=ADVANCED_FACE('',(#951),#992,.F.);
#1046=ADVANCED_FACE('',(#952),#27,.T.);
#1047=ADVANCED_FACE('',(#953),#993,.T.);
#1048=ADVANCED_FACE('',(#954),#994,.F.);
#1049=ADVANCED_FACE('',(#955),#995,.F.);
#1050=ADVANCED_FACE('',(#956),#996,.F.);
#1051=ADVANCED_FACE('',(#957),#997,.F.);
#1052=ADVANCED_FACE('',(#958),#998,.F.);
#1053=ADVANCED_FACE('',(#959),#999,.F.);
#1054=ADVANCED_FACE('',(#960),#1000,.F.);
#1055=ADVANCED_FACE('',(#961),#1001,.F.);
#1056=ADVANCED_FACE('',(#962),#1002,.F.);
#1057=ADVANCED_FACE('',(#963),#1003,.F.);
#1058=ADVANCED_FACE('',(#964),#1004,.F.);
#1059=ADVANCED_FACE('',(#965),#1005,.F.);
#1060=ADVANCED_FACE('',(#966),#1006,.F.);
#1061=ADVANCED_FACE('',(#967),#1007,.F.);
#1062=ADVANCED_FACE('',(#968),#1008,.F.);
#1063=ADVANCED_FACE('',(#969),#1009,.T.);
#1064=CLOSED_SHELL('',(#1010,#1011,#1012,#1013,#1014,#1015,#1016,#1017,
#1018,#1019,#1020,#1021,#1022,#1023,#1024,#1025,#1026,#1027,#1028,#1029,
#1030,#1031,#1032,#1033,#1034,#1035,#1036,#1037,#1038,#1039,#1040,#1041,
#1042,#1043,#1044,#1045,#1046,#1047,#1048,#1049,#1050,#1051,#1052,#1053,
#1054,#1055,#1056,#1057,#1058,#1059,#1060,#1061,#1062,#1063));
#1065=STYLED_ITEM('',(#1066),#1073);
#1066=PRESENTATION_STYLE_ASSIGNMENT((#1067));
#1067=SURFACE_STYLE_USAGE(.BOTH.,#1068);
#1068=SURFACE_SIDE_STYLE('',(#1069));
#1069=SURFACE_STYLE_FILL_AREA(#1070);
#1070=FILL_AREA_STYLE('',(#1071));
#1071=FILL_AREA_STYLE_COLOUR('',#1072);
#1072=COLOUR_RGB('',0.615686274509804,0.811764705882353,0.929411764705882);
#1073=MANIFOLD_SOLID_BREP('Case',#1064);
#1074=SHAPE_DEFINITION_REPRESENTATION(#1762,#1075);
#1075=SHAPE_REPRESENTATION('Case',(#1076),#1757);
#1076=AXIS2_PLACEMENT_3D('',#1449,#1159,#1160);
#1077=AXIS2_PLACEMENT_3D('',#1450,#1161,#1162);
#1078=AXIS2_PLACEMENT_3D('',#1456,#1165,#1166);
#1079=AXIS2_PLACEMENT_3D('',#1460,#1168,#1169);
#1080=AXIS2_PLACEMENT_3D('',#1464,#1171,#1172);
#1081=AXIS2_PLACEMENT_3D('',#1468,#1174,#1175);
#1082=AXIS2_PLACEMENT_3D('',#1472,#1177,#1178);
#1083=AXIS2_PLACEMENT_3D('',#1475,#1180,#1181);
#1084=AXIS2_PLACEMENT_3D('',#1484,#1186,#1187);
#1085=AXIS2_PLACEMENT_3D('',#1485,#1188,#1189);
#1086=AXIS2_PLACEMENT_3D('',#1489,#1191,#1192);
#1087=AXIS2_PLACEMENT_3D('',#1490,#1193,#1194);
#1088=AXIS2_PLACEMENT_3D('',#1496,#1198,#1199);
#1089=AXIS2_PLACEMENT_3D('',#1502,#1203,#1204);
#1090=AXIS2_PLACEMENT_3D('',#1508,#1208,#1209);
#1091=AXIS2_PLACEMENT_3D('',#1514,#1213,#1214);
#1092=AXIS2_PLACEMENT_3D('',#1520,#1218,#1219);
#1093=AXIS2_PLACEMENT_3D('',#1529,#1224,#1225);
#1094=AXIS2_PLACEMENT_3D('',#1535,#1229,#1230);
#1095=AXIS2_PLACEMENT_3D('',#1543,#1235,#1236);
#1096=AXIS2_PLACEMENT_3D('',#1544,#1237,#1238);
#1097=AXIS2_PLACEMENT_3D('',#1548,#1240,#1241);
#1098=AXIS2_PLACEMENT_3D('',#1549,#1242,#1243);
#1099=AXIS2_PLACEMENT_3D('',#1555,#1247,#1248);
#1100=AXIS2_PLACEMENT_3D('',#1556,#1249,#1250);
#1101=AXIS2_PLACEMENT_3D('',#1560,#1252,#1253);
#1102=AXIS2_PLACEMENT_3D('',#1561,#1254,#1255);
#1103=AXIS2_PLACEMENT_3D('',#1596,#1274,#1275);
#1104=AXIS2_PLACEMENT_3D('',#1599,#1277,#1278);
#1105=AXIS2_PLACEMENT_3D('',#1600,#1279,#1280);
#1106=AXIS2_PLACEMENT_3D('',#1604,#1283,#1284);
#1107=AXIS2_PLACEMENT_3D('',#1607,#1286,#1287);
#1108=AXIS2_PLACEMENT_3D('',#1608,#1288,#1289);
#1109=AXIS2_PLACEMENT_3D('',#1614,#1293,#1294);
#1110=AXIS2_PLACEMENT_3D('',#1620,#1298,#1299);
#1111=AXIS2_PLACEMENT_3D('',#1626,#1303,#1304);
#1112=AXIS2_PLACEMENT_3D('',#1627,#1305,#1306);
#1113=AXIS2_PLACEMENT_3D('',#1629,#1307,#1308);
#1114=AXIS2_PLACEMENT_3D('',#1630,#1309,#1310);
#1115=AXIS2_PLACEMENT_3D('',#1631,#1311,#1312);
#1116=AXIS2_PLACEMENT_3D('',#1633,#1313,#1314);
#1117=AXIS2_PLACEMENT_3D('',#1634,#1315,#1316);
#1118=AXIS2_PLACEMENT_3D('',#1635,#1317,#1318);
#1119=AXIS2_PLACEMENT_3D('',#1636,#1319,#1320);
#1120=AXIS2_PLACEMENT_3D('',#1637,#1321,#1322);
#1121=AXIS2_PLACEMENT_3D('',#1639,#1324,#1325);
#1122=AXIS2_PLACEMENT_3D('',#1640,#1326,#1327);
#1123=AXIS2_PLACEMENT_3D('',#1644,#1329,#1330);
#1124=AXIS2_PLACEMENT_3D('',#1648,#1332,#1333);
#1125=AXIS2_PLACEMENT_3D('',#1652,#1335,#1336);
#1126=AXIS2_PLACEMENT_3D('',#1656,#1338,#1339);
#1127=AXIS2_PLACEMENT_3D('',#1660,#1341,#1342);
#1128=AXIS2_PLACEMENT_3D('',#1662,#1344,#1345);
#1129=AXIS2_PLACEMENT_3D('',#1664,#1347,#1348);
#1130=AXIS2_PLACEMENT_3D('',#1666,#1350,#1351);
#1131=AXIS2_PLACEMENT_3D('',#1668,#1353,#1354);
#1132=AXIS2_PLACEMENT_3D('',#1670,#1356,#1357);
#1133=AXIS2_PLACEMENT_3D('',#1672,#1359,#1360);
#1134=AXIS2_PLACEMENT_3D('',#1706,#1378,#1379);
#1135=AXIS2_PLACEMENT_3D('',#1707,#1380,#1381);
#1136=AXIS2_PLACEMENT_3D('',#1710,#1383,#1384);
#1137=AXIS2_PLACEMENT_3D('',#1714,#1387,#1388);
#1138=AXIS2_PLACEMENT_3D('',#1715,#1389,#1390);
#1139=AXIS2_PLACEMENT_3D('',#1718,#1392,#1393);
#1140=AXIS2_PLACEMENT_3D('',#1722,#1396,#1397);
#1141=AXIS2_PLACEMENT_3D('',#1723,#1398,#1399);
#1142=AXIS2_PLACEMENT_3D('',#1724,#1400,#1401);
#1143=AXIS2_PLACEMENT_3D('',#1726,#1403,#1404);
#1144=AXIS2_PLACEMENT_3D('',#1728,#1406,#1407);
#1145=AXIS2_PLACEMENT_3D('',#1730,#1409,#1410);
#1146=AXIS2_PLACEMENT_3D('',#1732,#1412,#1413);
#1147=AXIS2_PLACEMENT_3D('',#1734,#1415,#1416);
#1148=AXIS2_PLACEMENT_3D('',#1736,#1418,#1419);
#1149=AXIS2_PLACEMENT_3D('',#1738,#1421,#1422);
#1150=AXIS2_PLACEMENT_3D('',#1740,#1424,#1425);
#1151=AXIS2_PLACEMENT_3D('',#1742,#1427,#1428);
#1152=AXIS2_PLACEMENT_3D('',#1744,#1430,#1431);
#1153=AXIS2_PLACEMENT_3D('',#1746,#1433,#1434);
#1154=AXIS2_PLACEMENT_3D('',#1748,#1436,#1437);
#1155=AXIS2_PLACEMENT_3D('',#1750,#1439,#1440);
#1156=AXIS2_PLACEMENT_3D('',#1752,#1442,#1443);
#1157=AXIS2_PLACEMENT_3D('',#1754,#1445,#1446);
#1158=AXIS2_PLACEMENT_3D('',#1755,#1447,#1448);
#1159=DIRECTION('',(0.,0.,1.));
#1160=DIRECTION('',(1.,0.,0.));
#1161=DIRECTION('',(0.,0.,1.));
#1162=DIRECTION('',(1.,0.,0.));
#1163=DIRECTION('',(1.110223024625E-16,1.,0.));
#1164=DIRECTION('',(1.,0.,0.));
#1165=DIRECTION('',(0.,0.,1.));
#1166=DIRECTION('',(1.,0.,0.));
#1167=DIRECTION('',(0.,-1.,0.));
#1168=DIRECTION('',(0.,0.,1.));
#1169=DIRECTION('',(1.,0.,0.));
#1170=DIRECTION('',(-0.633237834074482,-0.773957263352867,0.));
#1171=DIRECTION('',(0.,0.,1.));
#1172=DIRECTION('',(1.,0.,0.));
#1173=DIRECTION('',(-0.796842458803108,-0.604187136447489,0.));
#1174=DIRECTION('',(0.,0.,1.));
#1175=DIRECTION('',(1.,0.,0.));
#1176=DIRECTION('',(0.,-1.,0.));
#1177=DIRECTION('',(0.,0.,1.));
#1178=DIRECTION('',(1.,0.,0.));
#1179=DIRECTION('',(1.,0.,0.));
#1180=DIRECTION('',(0.0002444166594413,0.999999970130248,0.));
#1181=DIRECTION('',(-0.999999970130248,0.0002444166594413,0.));
#1182=DIRECTION('',(-0.999999970130248,0.0002444166594413,0.));
#1183=DIRECTION('',(0.,0.,1.));
#1184=DIRECTION('',(-0.999999970130248,0.0002444166594413,0.));
#1185=DIRECTION('',(0.,0.,1.));
#1186=DIRECTION('',(0.,0.,1.));
#1187=DIRECTION('',(1.,0.,0.));
#1188=DIRECTION('',(0.,0.,-1.));
#1189=DIRECTION('',(-1.,0.,0.));
#1190=DIRECTION('',(0.,0.,1.));
#1191=DIRECTION('',(0.,0.,-1.));
#1192=DIRECTION('',(-1.,0.,0.));
#1193=DIRECTION('',(-0.773957263352867,0.633237834074482,0.));
#1194=DIRECTION('',(-0.633237834074482,-0.773957263352867,0.));
#1195=DIRECTION('',(-0.633237834074482,-0.773957263352867,0.));
#1196=DIRECTION('',(0.,0.,1.));
#1197=DIRECTION('',(-0.633237834074482,-0.773957263352867,0.));
#1198=DIRECTION('',(-1.,0.,0.));
#1199=DIRECTION('',(0.,0.,1.));
#1200=DIRECTION('',(0.,-1.,0.));
#1201=DIRECTION('',(0.,0.,1.));
#1202=DIRECTION('',(0.,-1.,0.));
#1203=DIRECTION('',(0.,-1.,0.));
#1204=DIRECTION('',(0.,0.,-1.));
#1205=DIRECTION('',(1.,0.,0.));
#1206=DIRECTION('',(0.,0.,1.));
#1207=DIRECTION('',(1.,0.,0.));
#1208=DIRECTION('',(1.,0.,0.));
#1209=DIRECTION('',(0.,0.,-1.));
#1210=DIRECTION('',(0.,1.,0.));
#1211=DIRECTION('',(0.,0.,1.));
#1212=DIRECTION('',(0.,1.,0.));
#1213=DIRECTION('',(0.777244860788963,0.629198240920257,0.));
#1214=DIRECTION('',(-0.629198240920257,0.777244860788963,0.));
#1215=DIRECTION('',(-0.629198240920257,0.777244860788963,0.));
#1216=DIRECTION('',(0.,0.,1.));
#1217=DIRECTION('',(-0.629198240920257,0.777244860788963,0.));
#1218=DIRECTION('',(1.,0.,0.));
#1219=DIRECTION('',(0.,0.,-1.));
#1220=DIRECTION('',(0.,1.,0.));
#1221=DIRECTION('',(0.,0.,1.));
#1222=DIRECTION('',(0.,1.,0.));
#1223=DIRECTION('',(0.,0.,1.));
#1224=DIRECTION('',(5.12459617802449E-5,-0.999999998686926,0.));
#1225=DIRECTION('',(0.999999998686926,5.12459617802449E-5,0.));
#1226=DIRECTION('',(0.999999998686926,5.12459617802449E-5,0.));
#1227=DIRECTION('',(0.,0.,1.));
#1228=DIRECTION('',(0.999999998686926,5.12459617802449E-5,0.));
#1229=DIRECTION('',(0.598244590776747,0.801313552616179,0.));
#1230=DIRECTION('',(-0.801313552616179,0.598244590776747,0.));
#1231=DIRECTION('',(0.,0.,-1.));
#1232=DIRECTION('',(-0.801313552616179,0.598244590776747,0.));
#1233=DIRECTION('',(0.,0.,1.));
#1234=DIRECTION('',(-0.801313552616179,0.598244590776747,0.));
#1235=DIRECTION('',(0.,0.,1.));
#1236=DIRECTION('',(1.,0.,0.));
#1237=DIRECTION('',(0.,0.,1.));
#1238=DIRECTION('',(1.,0.,0.));
#1239=DIRECTION('',(0.,0.,1.));
#1240=DIRECTION('',(0.,0.,-1.));
#1241=DIRECTION('',(-1.,0.,0.));
#1242=DIRECTION('',(1.,0.,0.));
#1243=DIRECTION('',(0.,0.,-1.));
#1244=DIRECTION('',(0.,1.,0.));
#1245=DIRECTION('',(0.,0.,1.));
#1246=DIRECTION('',(0.,1.,0.));
#1247=DIRECTION('',(0.,0.,1.));
#1248=DIRECTION('',(1.,0.,0.));
#1249=DIRECTION('',(0.,0.,1.));
#1250=DIRECTION('',(1.,0.,0.));
#1251=DIRECTION('',(0.,0.,1.));
#1252=DIRECTION('',(0.,0.,-1.));
#1253=DIRECTION('',(-1.,0.,0.));
#1254=DIRECTION('',(0.,-1.,0.));
#1255=DIRECTION('',(0.,0.,-1.));
#1256=DIRECTION('',(1.,0.,1.93806378607338E-62));
#1257=DIRECTION('',(0.707106781186546,0.,0.707106781186549));
#1258=DIRECTION('',(0.,0.,1.));
#1259=DIRECTION('',(1.,0.,0.));
#1260=DIRECTION('',(1.,0.,0.));
#1261=DIRECTION('',(0.707106781186547,0.,-0.707106781186548));
#1262=DIRECTION('',(1.,0.,1.93806378607338E-62));
#1263=DIRECTION('',(0.707106781186547,0.,0.707106781186548));
#1264=DIRECTION('',(0.707106781186547,0.,-0.707106781186548));
#1265=DIRECTION('',(1.,0.,1.93806378607338E-62));
#1266=DIRECTION('',(0.707106781186547,0.,0.707106781186548));
#1267=DIRECTION('',(0.707106781186547,0.,-0.707106781186548));
#1268=DIRECTION('',(1.,0.,1.93806378607338E-62));
#1269=DIRECTION('',(0.707106781186547,0.,0.707106781186548));
#1270=DIRECTION('',(0.707106781186547,0.,-0.707106781186548));
#1271=DIRECTION('',(1.,0.,1.93806378607338E-62));
#1272=DIRECTION('',(0.707106781186549,0.,0.707106781186547));
#1273=DIRECTION('',(0.707106781186546,0.,-0.707106781186549));
#1274=DIRECTION('',(0.,0.,1.));
#1275=DIRECTION('',(1.,0.,0.));
#1276=DIRECTION('',(0.,0.,1.));
#1277=DIRECTION('',(0.,0.,-1.));
#1278=DIRECTION('',(-1.,0.,0.));
#1279=DIRECTION('',(-1.,0.,0.));
#1280=DIRECTION('',(0.,0.,1.));
#1281=DIRECTION('',(0.,0.,1.));
#1282=DIRECTION('',(0.,-1.,0.));
#1283=DIRECTION('',(0.,0.,1.));
#1284=DIRECTION('',(1.,0.,0.));
#1285=DIRECTION('',(0.,0.,1.));
#1286=DIRECTION('',(0.,0.,-1.));
#1287=DIRECTION('',(-1.,0.,0.));
#1288=DIRECTION('',(-0.604187136447489,0.796842458803108,0.));
#1289=DIRECTION('',(-0.796842458803108,-0.604187136447489,0.));
#1290=DIRECTION('',(0.,0.,-1.));
#1291=DIRECTION('',(0.,0.,1.));
#1292=DIRECTION('',(-0.796842458803108,-0.604187136447489,0.));
#1293=DIRECTION('',(-7.27250420995421E-5,-0.999999997355534,0.));
#1294=DIRECTION('',(0.999999997355534,-7.27250420995421E-5,0.));
#1295=DIRECTION('',(0.999999997355534,-7.27250420995421E-5,0.));
#1296=DIRECTION('',(0.,0.,1.));
#1297=DIRECTION('',(0.999999997355534,-7.27250420995421E-5,0.));
#1298=DIRECTION('',(-1.,0.,0.));
#1299=DIRECTION('',(0.,0.,1.));
#1300=DIRECTION('',(0.,1.,0.));
#1301=DIRECTION('',(0.,0.,1.));
#1302=DIRECTION('',(0.,1.,0.));
#1303=DIRECTION('',(0.,0.,1.));
#1304=DIRECTION('',(1.,0.,0.));
#1305=DIRECTION('',(0.,0.,-1.));
#1306=DIRECTION('',(-1.,0.,0.));
#1307=DIRECTION('',(0.,-0.707106781186548,-0.707106781186548));
#1308=DIRECTION('',(0.,-0.707106781186548,0.707106781186548));
#1309=DIRECTION('',(0.,0.,1.));
#1310=DIRECTION('',(1.,0.,0.));
#1311=DIRECTION('',(0.,-0.707106781186548,-0.707106781186548));
#1312=DIRECTION('',(0.,-0.707106781186548,0.707106781186548));
#1313=DIRECTION('',(0.,0.,-1.));
#1314=DIRECTION('',(-1.,0.,0.));
#1315=DIRECTION('',(0.,0.,1.));
#1316=DIRECTION('',(1.,0.,0.));
#1317=DIRECTION('',(0.,0.,-1.));
#1318=DIRECTION('',(-1.,0.,0.));
#1319=DIRECTION('',(0.,0.,-1.));
#1320=DIRECTION('',(-1.,0.,0.));
#1321=DIRECTION('',(0.,0.,-1.));
#1322=DIRECTION('',(1.,0.,0.));
#1323=DIRECTION('',(-1.,0.,0.));
#1324=DIRECTION('',(0.,0.,-1.));
#1325=DIRECTION('',(1.,0.,0.));
#1326=DIRECTION('',(0.,0.,-1.));
#1327=DIRECTION('',(-1.,0.,0.));
#1328=DIRECTION('',(-0.633237834074482,-0.773957263352867,0.));
#1329=DIRECTION('',(0.,0.,-1.));
#1330=DIRECTION('',(-1.,0.,0.));
#1331=DIRECTION('',(0.,-1.,0.));
#1332=DIRECTION('',(0.,0.,-1.));
#1333=DIRECTION('',(-1.,0.,0.));
#1334=DIRECTION('',(1.,0.,0.));
#1335=DIRECTION('',(0.,0.,-1.));
#1336=DIRECTION('',(-1.,0.,0.));
#1337=DIRECTION('',(0.,1.,0.));
#1338=DIRECTION('',(0.,0.,-1.));
#1339=DIRECTION('',(-1.,0.,0.));
#1340=DIRECTION('',(-0.629198240920257,0.777244860788963,0.));
#1341=DIRECTION('',(0.,0.,-1.));
#1342=DIRECTION('',(-1.,0.,0.));
#1343=DIRECTION('',(1.,0.,0.));
#1344=DIRECTION('',(0.,0.,-1.));
#1345=DIRECTION('',(-1.,0.,0.));
#1346=DIRECTION('',(0.,0.,-1.));
#1347=DIRECTION('',(0.773957263352867,-0.633237834074482,0.));
#1348=DIRECTION('',(0.633237834074482,0.773957263352867,0.));
#1349=DIRECTION('',(0.,0.,-1.));
#1350=DIRECTION('',(0.,0.,-1.));
#1351=DIRECTION('',(-1.,0.,0.));
#1352=DIRECTION('',(0.,0.,-1.));
#1353=DIRECTION('',(1.,0.,0.));
#1354=DIRECTION('',(0.,0.,-1.));
#1355=DIRECTION('',(0.,0.,-1.));
#1356=DIRECTION('',(0.,0.,-1.));
#1357=DIRECTION('',(-1.,0.,0.));
#1358=DIRECTION('',(0.,0.,-1.));
#1359=DIRECTION('',(0.,1.,0.));
#1360=DIRECTION('',(0.,0.,1.));
#1361=DIRECTION('',(-0.707106781186546,0.,-0.707106781186549));
#1362=DIRECTION('',(-1.,0.,-1.93806378607338E-62));
#1363=DIRECTION('',(-0.707106781186546,0.,0.707106781186549));
#1364=DIRECTION('',(-0.707106781186549,0.,-0.707106781186547));
#1365=DIRECTION('',(-1.,0.,-1.93806378607338E-62));
#1366=DIRECTION('',(-0.707106781186547,0.,0.707106781186548));
#1367=DIRECTION('',(-0.707106781186547,0.,-0.707106781186548));
#1368=DIRECTION('',(-1.,0.,-1.93806378607338E-62));
#1369=DIRECTION('',(-0.707106781186547,0.,0.707106781186548));
#1370=DIRECTION('',(-0.707106781186547,0.,-0.707106781186548));
#1371=DIRECTION('',(-1.,0.,-1.93806378607338E-62));
#1372=DIRECTION('',(-0.707106781186547,0.,0.707106781186548));
#1373=DIRECTION('',(-0.707106781186547,0.,-0.707106781186548));
#1374=DIRECTION('',(-1.,0.,-1.93806378607338E-62));
#1375=DIRECTION('',(-0.707106781186547,0.,0.707106781186548));
#1376=DIRECTION('',(1.,0.,0.));
#1377=DIRECTION('',(0.,0.,-1.));
#1378=DIRECTION('',(0.,0.,-1.));
#1379=DIRECTION('',(-1.,0.,0.));
#1380=DIRECTION('',(0.,0.,1.));
#1381=DIRECTION('',(1.,0.,0.));
#1382=DIRECTION('',(0.,0.,-1.));
#1383=DIRECTION('',(-1.,0.,0.));
#1384=DIRECTION('',(0.,0.,1.));
#1385=DIRECTION('',(0.,1.,0.));
#1386=DIRECTION('',(0.,0.,-1.));
#1387=DIRECTION('',(0.,0.,-1.));
#1388=DIRECTION('',(-1.,0.,0.));
#1389=DIRECTION('',(0.,0.,1.));
#1390=DIRECTION('',(1.,0.,0.));
#1391=DIRECTION('',(0.,0.,-1.));
#1392=DIRECTION('',(-0.777244860788963,-0.629198240920257,0.));
#1393=DIRECTION('',(0.629198240920257,-0.777244860788963,0.));
#1394=DIRECTION('',(-0.629198240920257,0.777244860788963,0.));
#1395=DIRECTION('',(0.,0.,-1.));
#1396=DIRECTION('',(0.,0.,-1.));
#1397=DIRECTION('',(-1.,0.,0.));
#1398=DIRECTION('',(0.,0.,1.));
#1399=DIRECTION('',(1.,0.,0.));
#1400=DIRECTION('',(0.,0.,1.));
#1401=DIRECTION('',(1.,0.,0.));
#1402=DIRECTION('',(-1.11022302462499E-16,-1.,0.));
#1403=DIRECTION('',(0.707106781186549,-7.8504622934178E-17,-0.707106781186546));
#1404=DIRECTION('',(-0.707106781186546,0.,-0.707106781186549));
#1405=DIRECTION('',(-1.11022302462499E-16,-1.,8.329587447433E-31));
#1406=DIRECTION('',(-0.707106781186548,7.85046229341767E-17,-0.707106781186547));
#1407=DIRECTION('',(-0.707106781186547,0.,0.707106781186548));
#1408=DIRECTION('',(-1.11022302462499E-16,-1.,8.329587447433E-31));
#1409=DIRECTION('',(1.93806378607338E-62,-8.329587447433E-31,-1.));
#1410=DIRECTION('',(0.,1.,-8.329587447433E-31));
#1411=DIRECTION('',(-1.11022302462499E-16,-1.,8.329587447433E-31));
#1412=DIRECTION('',(0.707106781186548,-7.85046229341779E-17,-0.707106781186547));
#1413=DIRECTION('',(-0.707106781186547,0.,-0.707106781186548));
#1414=DIRECTION('',(-1.11022302462499E-16,-1.,8.329587447433E-31));
#1415=DIRECTION('',(-0.707106781186548,7.85046229341767E-17,-0.707106781186547));
#1416=DIRECTION('',(-0.707106781186547,0.,0.707106781186548));
#1417=DIRECTION('',(-1.11022302462499E-16,-1.,8.329587447433E-31));
#1418=DIRECTION('',(1.93806378607338E-62,-8.329587447433E-31,-1.));
#1419=DIRECTION('',(0.,1.,-8.329587447433E-31));
#1420=DIRECTION('',(-1.11022302462499E-16,-1.,8.329587447433E-31));
#1421=DIRECTION('',(0.707106781186548,-7.85046229341779E-17,-0.707106781186547));
#1422=DIRECTION('',(-0.707106781186547,0.,-0.707106781186548));
#1423=DIRECTION('',(-1.11022302462499E-16,-1.,8.329587447433E-31));
#1424=DIRECTION('',(-0.707106781186548,7.85046229341767E-17,-0.707106781186547));
#1425=DIRECTION('',(-0.707106781186547,0.,0.707106781186548));
#1426=DIRECTION('',(-1.11022302462499E-16,-1.,8.329587447433E-31));
#1427=DIRECTION('',(1.93806378607338E-62,-8.329587447433E-31,-1.));
#1428=DIRECTION('',(0.,1.,-8.329587447433E-31));
#1429=DIRECTION('',(-1.11022302462499E-16,-1.,8.329587447433E-31));
#1430=DIRECTION('',(0.707106781186548,-7.85046229341779E-17,-0.707106781186547));
#1431=DIRECTION('',(-0.707106781186547,0.,-0.707106781186548));
#1432=DIRECTION('',(-1.11022302462499E-16,-1.,8.329587447433E-31));
#1433=DIRECTION('',(-0.707106781186548,7.85046229341767E-17,-0.707106781186547));
#1434=DIRECTION('',(-0.707106781186547,0.,0.707106781186548));
#1435=DIRECTION('',(-1.11022302462499E-16,-1.,8.329587447433E-31));
#1436=DIRECTION('',(1.93806378607338E-62,-8.329587447433E-31,-1.));
#1437=DIRECTION('',(0.,1.,-8.329587447433E-31));
#1438=DIRECTION('',(-1.11022302462499E-16,-1.,8.329587447433E-31));
#1439=DIRECTION('',(0.707106781186547,-7.85046229341777E-17,-0.707106781186548));
#1440=DIRECTION('',(-0.707106781186549,0.,-0.707106781186547));
#1441=DIRECTION('',(-1.11022302462499E-16,-1.,8.329587447433E-31));
#1442=DIRECTION('',(-0.707106781186549,7.85046229341768E-17,-0.707106781186546));
#1443=DIRECTION('',(-0.707106781186546,0.,0.707106781186549));
#1444=DIRECTION('',(-1.11022302462499E-16,-1.,8.329587447433E-31));
#1445=DIRECTION('',(1.93806378607338E-62,-8.329587447433E-31,-1.));
#1446=DIRECTION('',(0.,1.,-8.329587447433E-31));
#1447=DIRECTION('',(0.,-0.707106781186548,-0.707106781186548));
#1448=DIRECTION('',(1.,0.,0.));
#1449=CARTESIAN_POINT('',(0.,0.,0.));
#1450=CARTESIAN_POINT('',(0.,0.,0.00111));
#1451=CARTESIAN_POINT('',(0.00671526406871192,-7.45544078552095E-19,0.00111));
#1452=CARTESIAN_POINT('',(0.00671526406871204,0.02825,0.00111000000000003));
#1453=CARTESIAN_POINT('',(0.00671526406871193,0.0299000076868936,0.00111));
#1454=CARTESIAN_POINT('',(0.,0.02825,0.00111000000000002));
#1455=CARTESIAN_POINT('',(0.008500000747075,0.02825,0.00111000000000002));
#1456=CARTESIAN_POINT('',(0.008500000747075,0.027200000747075,0.00111000000000002));
#1457=CARTESIAN_POINT('',(0.00955,0.027200000747075,0.00111000000000002));
#1458=CARTESIAN_POINT('',(0.00954999999999986,0.0078784824917825,0.00111000000000002));
#1459=CARTESIAN_POINT('',(0.00954999999999986,-0.01144303576351,0.00111000000000002));
#1460=CARTESIAN_POINT('',(0.00849999697297898,-0.01144303576351,0.00111000000000002));
#1461=CARTESIAN_POINT('',(0.0093126544422844,-0.0121079374061124,0.00111000000000002));
#1462=CARTESIAN_POINT('',(0.00773872050244424,-0.014031634221478,0.00111000000000002));
#1463=CARTESIAN_POINT('',(0.00616478656260317,-0.0159553310368428,0.00111000000000002));
#1464=CARTESIAN_POINT('',(0.006900203336857,-0.01655703573983,0.00111000000000002));
#1465=CARTESIAN_POINT('',(0.00594999999986778,-0.0165569666362521,0.00111000000000002));
#1466=CARTESIAN_POINT('',(0.008194841963541,-0.0148548677799159,0.00111000000000002));
#1467=CARTESIAN_POINT('',(0.0104396839272142,-0.0131527689235798,0.00111000000000002));
#1468=CARTESIAN_POINT('',(0.00867019018443948,-0.0111134287753446,0.00111000000000002));
#1469=CARTESIAN_POINT('',(0.011349999999804,-0.0114430280766165,0.00111000000000002));
#1470=CARTESIAN_POINT('',(0.011349999999804,0.00787849017867604,0.00111000000000002));
#1471=CARTESIAN_POINT('',(0.011349999999804,0.0272000084339685,0.00111000000000002));
#1472=CARTESIAN_POINT('',(0.00865000074687895,0.0272000084339685,0.00111000000000002));
#1473=CARTESIAN_POINT('',(0.00865000074687895,0.0299000076868936,0.00111000000000002));
#1474=CARTESIAN_POINT('',(0.000149999999803953,0.0299000076868936,0.00111000000000002));
#1475=CARTESIAN_POINT('',(-9.9895045273714E-5,-0.0155554964957825,-0.001));
#1476=CARTESIAN_POINT('',(-9.9895045273714E-5,-0.0155554964957825,0.));
#1477=CARTESIAN_POINT('',(0.0051680630418936,-0.0155567840725387,0.));
#1478=CARTESIAN_POINT('',(-0.00536785313244103,-0.0155542089190263,0.));
#1479=CARTESIAN_POINT('',(0.0051680630418936,-0.0155567840725387,-0.001));
#1480=CARTESIAN_POINT('',(0.0051680630418936,-0.0155567840725387,-0.001));
#1481=CARTESIAN_POINT('',(-9.9895045273714E-5,-0.0155554964957825,-0.001));
#1482=CARTESIAN_POINT('',(-0.00536785313244103,-0.0155542089190263,-0.001));
#1483=CARTESIAN_POINT('',(-0.00536785313244103,-0.0155542089190263,-0.001));
#1484=CARTESIAN_POINT('',(0.00690020333685674,-0.0165570357398298,-0.001));
#1485=CARTESIAN_POINT('',(0.00690020333685674,-0.0165570357398298,0.));
#1486=CARTESIAN_POINT('',(0.00535213143608266,-0.0152904313110646,0.));
#1487=CARTESIAN_POINT('',(0.00535213143608266,-0.0152904313110646,-0.001));
#1488=CARTESIAN_POINT('',(0.00535213143608266,-0.0152904313110646,-0.001));
#1489=CARTESIAN_POINT('',(0.00690020333685674,-0.0165570357398298,-0.001));
#1490=CARTESIAN_POINT('',(0.00692606571804126,-0.0133667340775562,-0.001));
#1491=CARTESIAN_POINT('',(0.00692606571804126,-0.0133667340775562,0.));
#1492=CARTESIAN_POINT('',(0.00849999999999986,-0.0114430368440478,0.));
#1493=CARTESIAN_POINT('',(0.00849999999999986,-0.0114430368440478,-0.001));
#1494=CARTESIAN_POINT('',(0.00849999999999986,-0.0114430368440478,-0.001));
#1495=CARTESIAN_POINT('',(0.00692606571804126,-0.0133667340775562,-0.001));
#1496=CARTESIAN_POINT('',(0.00849999999999986,0.00787848157797612,-0.001));
#1497=CARTESIAN_POINT('',(0.00849999999999986,0.00787848157797612,0.));
#1498=CARTESIAN_POINT('',(0.00849999999999986,0.0272,0.));
#1499=CARTESIAN_POINT('',(0.00849999999999986,0.0272,-0.001));
#1500=CARTESIAN_POINT('',(0.00849999999999986,0.0272,-0.001));
#1501=CARTESIAN_POINT('',(0.00849999999999986,0.00787848157797612,-0.001));
#1502=CARTESIAN_POINT('',(-5.20417042793042E-18,0.0272,-0.001));
#1503=CARTESIAN_POINT('',(-5.20417042793042E-18,0.0272,0.));
#1504=CARTESIAN_POINT('',(-0.00849999999999987,0.0272,0.));
#1505=CARTESIAN_POINT('',(-0.00849999999999987,0.0272,-0.001));
#1506=CARTESIAN_POINT('',(-0.00849999999999987,0.0272,-0.001));
#1507=CARTESIAN_POINT('',(-5.20417042793042E-18,0.0272,-0.001));
#1508=CARTESIAN_POINT('',(-0.00849999999999987,0.00777701503447917,-0.001));
#1509=CARTESIAN_POINT('',(-0.00849999999999987,0.00777701503447917,0.));
#1510=CARTESIAN_POINT('',(-0.00849999999999987,-0.0116459699310417,0.));
#1511=CARTESIAN_POINT('',(-0.00849999999999987,-0.0116459699310417,-0.001));
#1512=CARTESIAN_POINT('',(-0.00849999999999987,-0.0116459699310417,-0.001));
#1513=CARTESIAN_POINT('',(-0.00849999999999987,0.00777701503447917,-0.001));
#1514=CARTESIAN_POINT('',(-0.00702277124179048,-0.0134707818676558,-0.001));
#1515=CARTESIAN_POINT('',(-0.00702277124179048,-0.0134707818676558,0.));
#1516=CARTESIAN_POINT('',(-0.00554554248255381,-0.0152955938034384,0.));
#1517=CARTESIAN_POINT('',(-0.00554554248255381,-0.0152955938034384,-0.001));
#1518=CARTESIAN_POINT('',(-0.00554554248255381,-0.0152955938034384,-0.001));
#1519=CARTESIAN_POINT('',(-0.00702277124179048,-0.0134707818676558,-0.001));
#1520=CARTESIAN_POINT('',(-0.00609999999999986,0.,-0.001));
#1521=CARTESIAN_POINT('',(-0.00609999999999986,0.,0.));
#1522=CARTESIAN_POINT('',(-0.00609999999999993,-0.027200000373535,0.));
#1523=CARTESIAN_POINT('',(-0.00609999999999941,-0.0165540299999991,0.));
#1524=CARTESIAN_POINT('',(-0.00609999999999941,-0.0165540299999991,-0.001));
#1525=CARTESIAN_POINT('',(-0.00609999999999941,-0.0165540299999991,-0.001));
#1526=CARTESIAN_POINT('',(-0.00609999999999986,0.,-0.001));
#1527=CARTESIAN_POINT('',(-0.00609999999999993,-0.027200000373535,-0.001));
#1528=CARTESIAN_POINT('',(-0.00609999999999993,-0.027200000373535,-0.001));
#1529=CARTESIAN_POINT('',(-0.00612499999996674,-0.0165540312811482,-0.001));
#1530=CARTESIAN_POINT('',(-0.00612499999996674,-0.0165540312811482,0.));
#1531=CARTESIAN_POINT('',(-0.00614999999993361,-0.0165540325622972,0.));
#1532=CARTESIAN_POINT('',(-0.00614999999993361,-0.0165540325622972,-0.001));
#1533=CARTESIAN_POINT('',(-0.00614999999993361,-0.0165540325622972,-0.001));
#1534=CARTESIAN_POINT('',(-0.00612499999996674,-0.0165540312811482,-0.001));
#1535=CARTESIAN_POINT('',(-0.00829926445940717,-0.0149494349202994,-0.001));
#1536=CARTESIAN_POINT('',(-0.00614999999993361,-0.0165540325622972,0.260017621135332));
#1537=CARTESIAN_POINT('',(-0.00614999999993361,-0.0165540325622972,0.00111000000000002));
#1538=CARTESIAN_POINT('',(-0.00829926445940717,-0.0149494349202994,0.00111000000000002));
#1539=CARTESIAN_POINT('',(-0.0104485289188807,-0.0133448372783017,0.00111000000000002));
#1540=CARTESIAN_POINT('',(-0.0104485289188807,-0.0133448372783017,-0.001));
#1541=CARTESIAN_POINT('',(-0.0104485289188807,-0.0133448372783017,-0.001));
#1542=CARTESIAN_POINT('',(-0.00829926445940717,-0.0149494349202994,-0.001));
#1543=CARTESIAN_POINT('',(-0.00834985542240705,-0.0116459110597265,-0.001));
#1544=CARTESIAN_POINT('',(-0.00834985542240705,-0.0116459110597265,0.00111000000000002));
#1545=CARTESIAN_POINT('',(-0.011050000000196,-0.0116459110597265,0.00111000000000002));
#1546=CARTESIAN_POINT('',(-0.011050000000196,-0.0116459110597265,-0.001));
#1547=CARTESIAN_POINT('',(-0.011050000000196,-0.0116459110597265,-0.001));
#1548=CARTESIAN_POINT('',(-0.00834985542240705,-0.0116459110597265,-0.001));
#1549=CARTESIAN_POINT('',(-0.011050000000196,0.00777704868712104,-0.001));
#1550=CARTESIAN_POINT('',(-0.011050000000196,0.00777704868712104,0.00111000000000002));
#1551=CARTESIAN_POINT('',(-0.011050000000196,0.0272000084339685,0.00111000000000002));
#1552=CARTESIAN_POINT('',(-0.011050000000196,0.0272000084339685,-0.001));
#1553=CARTESIAN_POINT('',(-0.011050000000196,0.0272000084339685,-0.001));
#1554=CARTESIAN_POINT('',(-0.011050000000196,0.00777704868712104,-0.001));
#1555=CARTESIAN_POINT('',(-0.00835000074727105,0.0272000084339685,-0.001));
#1556=CARTESIAN_POINT('',(-0.00835000074727105,0.0272000084339685,0.00111000000000002));
#1557=CARTESIAN_POINT('',(-0.00835000074727105,0.0299000076868936,0.00111000000000002));
#1558=CARTESIAN_POINT('',(-0.00835000074727105,0.0299000076868936,-0.001));
#1559=CARTESIAN_POINT('',(-0.00835000074727105,0.0299000076868936,-0.001));
#1560=CARTESIAN_POINT('',(-0.00835000074727105,0.0272000084339685,-0.001));
#1561=CARTESIAN_POINT('',(0.000149999999803953,0.0299000076868936,-0.001));
#1562=CARTESIAN_POINT('',(0.000149999999803953,0.0299000076868936,0.000695));
#1563=CARTESIAN_POINT('',(0.00401973593128807,0.0299000076868936,0.000695));
#1564=CARTESIAN_POINT('',(0.00630026406871193,0.0299000076868936,0.000695));
#1565=CARTESIAN_POINT('',(0.00237763203425796,0.0299000076868936,-0.003227632034454));
#1566=CARTESIAN_POINT('',(0.00865000074687895,0.0299000076868936,-0.001));
#1567=CARTESIAN_POINT('',(0.00865000074687895,0.0299000076868936,-0.001));
#1568=CARTESIAN_POINT('',(0.000149999999803953,0.0299000076868936,-0.001));
#1569=CARTESIAN_POINT('',(0.000149999999803953,0.0299000076868936,0.00111000000000002));
#1570=CARTESIAN_POINT('',(-0.00655526406871193,0.0299000076868936,0.00111));
#1571=CARTESIAN_POINT('',(-0.00214763203445399,0.0299000076868936,-0.00329763203425794));
#1572=CARTESIAN_POINT('',(-0.00614026406871193,0.0299000076868936,0.000695));
#1573=CARTESIAN_POINT('',(0.000149999999803953,0.0299000076868936,0.000695));
#1574=CARTESIAN_POINT('',(-0.00385973593128807,0.0299000076868936,0.000695));
#1575=CARTESIAN_POINT('',(-0.00270236796574206,0.0299000076868936,0.00185236796554601));
#1576=CARTESIAN_POINT('',(-0.00373,0.0299000076868936,0.000824735931288072));
#1577=CARTESIAN_POINT('',(-0.000877632034453991,0.0299000076868936,-0.00202763203425794));
#1578=CARTESIAN_POINT('',(-0.00360026406871193,0.0299000076868936,0.000695));
#1579=CARTESIAN_POINT('',(0.000149999999803953,0.0299000076868936,0.000695));
#1580=CARTESIAN_POINT('',(-0.00131973593128807,0.0299000076868936,0.000695));
#1581=CARTESIAN_POINT('',(-0.00143236796574206,0.0299000076868936,0.00058236796554601));
#1582=CARTESIAN_POINT('',(-0.00119,0.0299000076868936,0.000824735931288072));
#1583=CARTESIAN_POINT('',(0.000392367965546011,0.0299000076868936,-0.000757632034257942));
#1584=CARTESIAN_POINT('',(-0.00106026406871193,0.0299000076868936,0.000695));
#1585=CARTESIAN_POINT('',(0.000149999999803953,0.0299000076868936,0.000695));
#1586=CARTESIAN_POINT('',(0.00122026406871193,0.0299000076868936,0.000695));
#1587=CARTESIAN_POINT('',(-0.000162367965742058,0.0299000076868936,-0.00068763203445399));
#1588=CARTESIAN_POINT('',(0.00135,0.0299000076868936,0.000824735931288072));
#1589=CARTESIAN_POINT('',(0.00166236796554601,0.0299000076868936,0.000512367965742059));
#1590=CARTESIAN_POINT('',(0.00147973593128807,0.0299000076868936,0.000695));
#1591=CARTESIAN_POINT('',(0.000149999999803953,0.0299000076868936,0.000695));
#1592=CARTESIAN_POINT('',(0.00376026406871193,0.0299000076868936,0.000695));
#1593=CARTESIAN_POINT('',(0.00110763203425794,0.0299000076868936,-0.00195763203445398));
#1594=CARTESIAN_POINT('',(0.00389,0.0299000076868936,0.000824735931288072));
#1595=CARTESIAN_POINT('',(0.00293236796554602,0.0299000076868936,0.00178236796574206));
#1596=CARTESIAN_POINT('',(0.00865000074687895,0.0272000084339685,-0.001));
#1597=CARTESIAN_POINT('',(0.011349999999804,0.0272000084339685,-0.001));
#1598=CARTESIAN_POINT('',(0.011349999999804,0.0272000084339685,-0.001));
#1599=CARTESIAN_POINT('',(0.00865000074687895,0.0272000084339685,-0.001));
#1600=CARTESIAN_POINT('',(0.011349999999804,0.00787849017867604,-0.001));
#1601=CARTESIAN_POINT('',(0.011349999999804,-0.0114430280766165,-0.001));
#1602=CARTESIAN_POINT('',(0.011349999999804,-0.0114430280766165,-0.001));
#1603=CARTESIAN_POINT('',(0.011349999999804,0.00787849017867604,-0.001));
#1604=CARTESIAN_POINT('',(0.00867019018443948,-0.0111134287753446,-0.001));
#1605=CARTESIAN_POINT('',(0.0104396839272142,-0.0131527689235798,-0.001));
#1606=CARTESIAN_POINT('',(0.0104396839272142,-0.0131527689235798,-0.001));
#1607=CARTESIAN_POINT('',(0.00867019018443948,-0.0111134287753446,-0.001));
#1608=CARTESIAN_POINT('',(0.008194841963541,-0.0148548677799159,-0.001));
#1609=CARTESIAN_POINT('',(0.00594999999986778,-0.0165569666362521,0.260017621135332));
#1610=CARTESIAN_POINT('',(0.00594999999986778,-0.0165569666362521,0.));
#1611=CARTESIAN_POINT('',(0.00594999999986778,-0.0165569666362521,-0.001));
#1612=CARTESIAN_POINT('',(0.00594999999986778,-0.0165569666362521,-0.001));
#1613=CARTESIAN_POINT('',(0.008194841963541,-0.0148548677799159,-0.001));
#1614=CARTESIAN_POINT('',(0.00592499999993389,-0.016556964818126,-0.001));
#1615=CARTESIAN_POINT('',(0.00592499999993389,-0.016556964818126,0.));
#1616=CARTESIAN_POINT('',(0.0059,-0.016556963,0.));
#1617=CARTESIAN_POINT('',(0.0059,-0.016556963,-0.001));
#1618=CARTESIAN_POINT('',(0.0059,-0.016556963,-0.001));
#1619=CARTESIAN_POINT('',(0.00592499999993389,-0.016556964818126,-0.001));
#1620=CARTESIAN_POINT('',(0.0059,0.,-0.001));
#1621=CARTESIAN_POINT('',(0.0059,0.,0.));
#1622=CARTESIAN_POINT('',(0.00589999999999986,-0.027200000373535,0.));
#1623=CARTESIAN_POINT('',(0.00589999999999986,-0.027200000373535,-0.001));
#1624=CARTESIAN_POINT('',(0.00589999999999986,-0.027200000373535,-0.001));
#1625=CARTESIAN_POINT('',(0.0059,0.,-0.001));
#1626=CARTESIAN_POINT('',(0.004900000747075,-0.02720000074707,-0.001));
#1627=CARTESIAN_POINT('',(0.004900000747075,-0.02720000074707,0.));
#1628=CARTESIAN_POINT('',(0.0049000003735375,-0.0281999999999987,0.));
#1629=CARTESIAN_POINT('',(0.004900000747075,-0.02720000074707,-0.00099999925292735));
#1630=CARTESIAN_POINT('',(-0.005100000747075,-0.02720000074707,-0.001));
#1631=CARTESIAN_POINT('',(-0.005100000747075,-0.02720000074707,-0.00099999925292735));
#1632=CARTESIAN_POINT('',(-0.00510000037353741,-0.0281999999999961,0.));
#1633=CARTESIAN_POINT('',(-0.005100000747075,-0.02720000074707,0.));
#1634=CARTESIAN_POINT('',(-0.00710014457647594,-0.01655408125337,-0.001));
#1635=CARTESIAN_POINT('',(-0.00710014457647594,-0.01655408125337,0.));
#1636=CARTESIAN_POINT('',(-0.00710014457647594,-0.01655408125337,-0.001));
#1637=CARTESIAN_POINT('',(0.000149999999803953,0.000850003843447422,-0.001));
#1638=CARTESIAN_POINT('',(-0.00510000037353741,-0.0271999999999974,-0.001));
#1639=CARTESIAN_POINT('',(0.000149999999803953,0.000850003843447422,0.));
#1640=CARTESIAN_POINT('',(0.006900203336857,-0.01655703573983,0.));
#1641=CARTESIAN_POINT('',(0.00616478656260317,-0.0159553310368428,0.));
#1642=CARTESIAN_POINT('',(0.00773872050244424,-0.014031634221478,0.));
#1643=CARTESIAN_POINT('',(0.0093126544422844,-0.0121079374061124,0.));
#1644=CARTESIAN_POINT('',(0.00849999697297898,-0.01144303576351,0.));
#1645=CARTESIAN_POINT('',(0.00954999999999986,-0.01144303576351,0.));
#1646=CARTESIAN_POINT('',(0.00954999999999986,0.0078784824917825,0.));
#1647=CARTESIAN_POINT('',(0.00955,0.027200000747075,0.));
#1648=CARTESIAN_POINT('',(0.008500000747075,0.027200000747075,0.));
#1649=CARTESIAN_POINT('',(0.008500000747075,0.02825,0.));
#1650=CARTESIAN_POINT('',(0.,0.02825,0.));
#1651=CARTESIAN_POINT('',(-0.008500000747075,0.02825,0.));
#1652=CARTESIAN_POINT('',(-0.008500000747075,0.027200000747075,0.));
#1653=CARTESIAN_POINT('',(-0.00954999999999987,0.027200000747075,0.));
#1654=CARTESIAN_POINT('',(-0.00954999999999987,0.0077770410002275,0.));
#1655=CARTESIAN_POINT('',(-0.009550000001313,-0.01164591874662,0.));
#1656=CARTESIAN_POINT('',(-0.00849985542352401,-0.01164591874662,0.));
#1657=CARTESIAN_POINT('',(-0.00931607489867143,-0.0123066678668475,0.));
#1658=CARTESIAN_POINT('',(-0.00783886224304047,-0.0141314599120418,0.));
#1659=CARTESIAN_POINT('',(-0.00636164958638222,-0.0159562519564046,0.));
#1660=CARTESIAN_POINT('',(-0.007100144576476,-0.01655408125337,0.));
#1661=CARTESIAN_POINT('',(0.,-0.0281999999999974,0.));
#1662=CARTESIAN_POINT('',(0.006900203336857,-0.01655703573983,0.260017621135332));
#1663=CARTESIAN_POINT('',(0.00616478656260317,-0.0159553310368428,0.260017621135332));
#1664=CARTESIAN_POINT('',(0.00773872050244424,-0.014031634221478,0.260017621135332));
#1665=CARTESIAN_POINT('',(0.0093126544422844,-0.0121079374061124,0.260017621135332));
#1666=CARTESIAN_POINT('',(0.00849999697297898,-0.01144303576351,0.260017621135332));
#1667=CARTESIAN_POINT('',(0.00954999999999986,-0.01144303576351,0.260017621135332));
#1668=CARTESIAN_POINT('',(0.00954999999999986,0.0078784824917825,0.260017621135332));
#1669=CARTESIAN_POINT('',(0.00955,0.027200000747075,0.260017621135332));
#1670=CARTESIAN_POINT('',(0.008500000747075,0.027200000747075,0.260017621135332));
#1671=CARTESIAN_POINT('',(0.008500000747075,0.02825,0.260017621135332));
#1672=CARTESIAN_POINT('',(0.,0.02825,0.260017621135332));
#1673=CARTESIAN_POINT('',(0.132811442602022,0.02825,0.12720617853331));
#1674=CARTESIAN_POINT('',(0.00630026406871193,0.02825,0.000695));
#1675=CARTESIAN_POINT('',(5.02583780932012E-63,0.02825,0.000695));
#1676=CARTESIAN_POINT('',(0.00401973593128807,0.02825,0.000695));
#1677=CARTESIAN_POINT('',(-0.127651442602022,0.02825,0.13236617853331));
#1678=CARTESIAN_POINT('',(0.00389,0.02825,0.000824735931288072));
#1679=CARTESIAN_POINT('',(0.131541442602022,0.02825,0.128476178533309));
#1680=CARTESIAN_POINT('',(0.00376026406871193,0.02825,0.000695));
#1681=CARTESIAN_POINT('',(5.02583780932012E-63,0.02825,0.000695));
#1682=CARTESIAN_POINT('',(0.00147973593128807,0.02825,0.000695));
#1683=CARTESIAN_POINT('',(-0.128921442602022,0.02825,0.13109617853331));
#1684=CARTESIAN_POINT('',(0.00135,0.02825,0.000824735931288072));
#1685=CARTESIAN_POINT('',(0.130271442602022,0.02825,0.12974617853331));
#1686=CARTESIAN_POINT('',(0.00122026406871193,0.02825,0.000695));
#1687=CARTESIAN_POINT('',(5.02583780932012E-63,0.02825,0.000695));
#1688=CARTESIAN_POINT('',(-0.00106026406871193,0.02825,0.000695));
#1689=CARTESIAN_POINT('',(-0.130191442602022,0.02825,0.12982617853331));
#1690=CARTESIAN_POINT('',(-0.00119,0.02825,0.000824735931288072));
#1691=CARTESIAN_POINT('',(0.129001442602022,0.02825,0.13101617853331));
#1692=CARTESIAN_POINT('',(-0.00131973593128807,0.02825,0.000695));
#1693=CARTESIAN_POINT('',(5.02583780932012E-63,0.02825,0.000695));
#1694=CARTESIAN_POINT('',(-0.00360026406871193,0.02825,0.000695));
#1695=CARTESIAN_POINT('',(-0.131461442602022,0.02825,0.12855617853331));
#1696=CARTESIAN_POINT('',(-0.00373,0.02825,0.000824735931288072));
#1697=CARTESIAN_POINT('',(0.127731442602022,0.02825,0.13228617853331));
#1698=CARTESIAN_POINT('',(-0.00385973593128807,0.02825,0.000695));
#1699=CARTESIAN_POINT('',(5.02583780932012E-63,0.02825,0.000695));
#1700=CARTESIAN_POINT('',(-0.00614026406871193,0.02825,0.000695));
#1701=CARTESIAN_POINT('',(-0.132731442602022,0.02825,0.12728617853331));
#1702=CARTESIAN_POINT('',(-0.00655526406871201,0.02825,0.00111000000000003));
#1703=CARTESIAN_POINT('',(0.,0.02825,0.00111000000000002));
#1704=CARTESIAN_POINT('',(-0.008500000747075,0.02825,0.00111000000000002));
#1705=CARTESIAN_POINT('',(-0.008500000747075,0.02825,0.260017621135332));
#1706=CARTESIAN_POINT('',(-0.008500000747075,0.027200000747075,0.260017621135332));
#1707=CARTESIAN_POINT('',(-0.008500000747075,0.027200000747075,0.00111000000000002));
#1708=CARTESIAN_POINT('',(-0.00954999999999987,0.027200000747075,0.00111000000000002));
#1709=CARTESIAN_POINT('',(-0.00954999999999987,0.027200000747075,0.260017621135332));
#1710=CARTESIAN_POINT('',(-0.00954999999999987,0.0077770410002275,0.260017621135332));
#1711=CARTESIAN_POINT('',(-0.00954999999999987,0.0077770410002275,0.00111000000000002));
#1712=CARTESIAN_POINT('',(-0.009550000001313,-0.01164591874662,0.00111000000000002));
#1713=CARTESIAN_POINT('',(-0.009550000001313,-0.01164591874662,0.260017621135332));
#1714=CARTESIAN_POINT('',(-0.00849985542352401,-0.01164591874662,0.260017621135332));
#1715=CARTESIAN_POINT('',(-0.00849985542352401,-0.01164591874662,0.00111000000000002));
#1716=CARTESIAN_POINT('',(-0.00931607489867143,-0.0123066678668475,0.00111000000000002));
#1717=CARTESIAN_POINT('',(-0.00931607489867143,-0.0123066678668475,0.260017621135332));
#1718=CARTESIAN_POINT('',(-0.00783886224304047,-0.0141314599120418,0.260017621135332));
#1719=CARTESIAN_POINT('',(-0.00783886224304047,-0.0141314599120418,0.00111000000000002));
#1720=CARTESIAN_POINT('',(-0.00636164958638222,-0.0159562519564046,0.00111000000000002));
#1721=CARTESIAN_POINT('',(-0.00636164958638222,-0.0159562519564046,0.260017621135332));
#1722=CARTESIAN_POINT('',(-0.007100144576476,-0.01655408125337,0.260017621135332));
#1723=CARTESIAN_POINT('',(-0.007100144576476,-0.01655408125337,0.00111000000000002));
#1724=CARTESIAN_POINT('',(0.,0.,0.00111));
#1725=CARTESIAN_POINT('',(-0.00655526406871193,7.27780510158085E-19,0.00111));
#1726=CARTESIAN_POINT('',(0.00651513203435597,0.0897037600006338,0.000909867965644036));
#1727=CARTESIAN_POINT('',(0.00630026406871194,0.0897037600006338,0.000695));
#1728=CARTESIAN_POINT('',(-0.00635513203435596,0.0897037600006338,0.000909867965644036));
#1729=CARTESIAN_POINT('',(-0.00614026406871192,0.0897037600006338,0.000695));
#1730=CARTESIAN_POINT('',(-0.005,0.0897037600006338,0.000695));
#1731=CARTESIAN_POINT('',(-0.00385973593128807,0.0897037600006338,0.000695));
#1732=CARTESIAN_POINT('',(-0.00379486796564403,0.0897037600006338,0.000759867965644036));
#1733=CARTESIAN_POINT('',(-0.00373,0.0897037600006338,0.000824735931288072));
#1734=CARTESIAN_POINT('',(-0.00366513203435595,0.0897037600006338,0.000759867965644036));
#1735=CARTESIAN_POINT('',(-0.00360026406871192,0.0897037600006338,0.000695));
#1736=CARTESIAN_POINT('',(-0.00246,0.0897037600006338,0.000695));
#1737=CARTESIAN_POINT('',(-0.00131973593128806,0.0897037600006338,0.000695));
#1738=CARTESIAN_POINT('',(-0.00125486796564403,0.0897037600006338,0.000759867965644036));
#1739=CARTESIAN_POINT('',(-0.00119,0.0897037600006338,0.000824735931288072));
#1740=CARTESIAN_POINT('',(-0.00112513203435596,0.0897037600006338,0.000759867965644036));
#1741=CARTESIAN_POINT('',(-0.00106026406871192,0.0897037600006338,0.000695));
#1742=CARTESIAN_POINT('',(8.00000000000074E-5,0.0897037600006338,0.000695));
#1743=CARTESIAN_POINT('',(0.00122026406871194,0.0897037600006338,0.000695));
#1744=CARTESIAN_POINT('',(0.00128513203435597,0.0897037600006338,0.000759867965644036));
#1745=CARTESIAN_POINT('',(0.00135,0.0897037600006338,0.000824735931288072));
#1746=CARTESIAN_POINT('',(0.00141486796564404,0.0897037600006338,0.000759867965644036));
#1747=CARTESIAN_POINT('',(0.00147973593128808,0.0897037600006338,0.000695));
#1748=CARTESIAN_POINT('',(0.00262,0.0897037600006338,0.000695));
#1749=CARTESIAN_POINT('',(0.00376026406871193,0.0897037600006338,0.000695));
#1750=CARTESIAN_POINT('',(0.00382513203435597,0.0897037600006338,0.000759867965644036));
#1751=CARTESIAN_POINT('',(0.00389,0.0897037600006338,0.000824735931288072));
#1752=CARTESIAN_POINT('',(0.00395486796564404,0.0897037600006338,0.000759867965644036));
#1753=CARTESIAN_POINT('',(0.00401973593128808,0.0897037600006338,0.000695));
#1754=CARTESIAN_POINT('',(0.00516,0.0897037600006338,0.000695));
#1755=CARTESIAN_POINT('',(0.000149999999803953,-0.0271999999999974,-0.001));
#1756=MECHANICAL_DESIGN_GEOMETRIC_PRESENTATION_REPRESENTATION('',(#1065),
#1757);
#1757=(
GEOMETRIC_REPRESENTATION_CONTEXT(3)
GLOBAL_UNCERTAINTY_ASSIGNED_CONTEXT((#1758))
GLOBAL_UNIT_ASSIGNED_CONTEXT((#1761,#1760,#1759))
REPRESENTATION_CONTEXT('Case','TOP_LEVEL_ASSEMBLY_PART')
);
#1758=UNCERTAINTY_MEASURE_WITH_UNIT(LENGTH_MEASURE(1.E-8),#1761,
'DISTANCE_ACCURACY_VALUE','Maximum Tolerance applied to model');
#1759=(
NAMED_UNIT(*)
SI_UNIT($,.STERADIAN.)
SOLID_ANGLE_UNIT()
);
#1760=(
NAMED_UNIT(*)
PLANE_ANGLE_UNIT()
SI_UNIT($,.RADIAN.)
);
#1761=(
LENGTH_UNIT()
NAMED_UNIT(*)
SI_UNIT($,.METRE.)
);
#1762=PRODUCT_DEFINITION_SHAPE('','',#1763);
#1763=PRODUCT_DEFINITION('','',#1765,#1764);
#1764=PRODUCT_DEFINITION_CONTEXT('',#1771,'design');
#1765=PRODUCT_DEFINITION_FORMATION_WITH_SPECIFIED_SOURCE('','',#1767,
 .NOT_KNOWN.);
#1766=PRODUCT_RELATED_PRODUCT_CATEGORY('','',(#1767));
#1767=PRODUCT('Case','Case','Case',(#1769));
#1768=PRODUCT_CATEGORY('','');
#1769=PRODUCT_CONTEXT('',#1771,'mechanical');
#1770=APPLICATION_PROTOCOL_DEFINITION('international standard',
'ap242_managed_model_based_3d_engineering',2020,#1771);
#1771=APPLICATION_CONTEXT('managed model based 3d engineering');
ENDSEC;
END-ISO-10303-21;
